<?xml version="1.0" standalone="no"?>
<!DOCTYPE svg PUBLIC "-//W3C//DTD SVG 20010904//EN"
 "http://www.w3.org/TR/2001/REC-SVG-20010904/DTD/svg10.dtd">
<svg version="1.0" xmlns="http://www.w3.org/2000/svg"
 width="512.000000pt" height="512.000000pt" viewBox="0 0 512.000000 512.000000"
 preserveAspectRatio="xMidYMid meet">

<g transform="translate(0.000000,512.000000) scale(0.100000,-0.100000)"
fill="#000000" stroke="none">
<path d="M2014 5099 c-67 -25 -129 -88 -154 -156 -19 -52 -20 -79 -20 -906 0
-549 4 -865 10 -889 17 -59 71 -130 124 -163 l49 -30 409 -3 408 -3 0 -124 0
-124 -186 -3 c-181 -3 -186 -4 -205 -27 -42 -52 -13 -121 59 -136 l32 -7 -2
-156 -3 -157 -261 -3 -261 -2 -6 115 c-8 142 -34 211 -107 279 -56 52 -87 69
-159 86 -145 34 -310 -49 -374 -188 -17 -37 -23 -73 -27 -167 l-5 -120 -85 -3
c-70 -2 -89 -7 -107 -24 -32 -30 -31 -81 2 -113 22 -23 32 -25 110 -25 l85 0
0 -284 0 -284 -78 -78 c-111 -113 -172 -247 -172 -380 0 -120 -30 -114 579
-114 313 0 520 4 536 10 41 15 54 61 44 148 -5 40 -19 97 -30 128 -29 76 -109
194 -164 238 l-45 37 0 290 0 289 265 0 265 0 0 -709 0 -709 -123 -61 c-184
-90 -306 -212 -352 -352 l-17 -49 -71 0 c-85 0 -137 -21 -151 -62 -12 -35 7
-82 40 -97 18 -8 315 -11 1070 -11 l1045 0 24 25 c34 33 34 83 0 115 -22 21
-38 24 -114 28 l-88 4 -16 52 c-46 144 -211 299 -397 372 l-70 27 0 952 0 952
39 11 c49 15 65 35 65 79 0 26 -7 42 -28 59 -26 23 -32 24 -207 24 l-179 0 0
125 0 125 398 0 c395 0 397 0 447 24 60 28 116 87 139 147 15 40 16 122 14
929 l-3 885 -28 48 c-33 56 -105 112 -164 126 -28 7 -326 11 -895 10 -823 0
-855 -1 -904 -20z m1764 -160 c66 -23 62 29 62 -909 l0 -852 -29 -29 -29 -29
-855 0 -854 0 -26 26 c-15 14 -29 40 -32 58 -3 17 -5 403 -3 857 3 811 3 827
23 849 11 12 29 26 40 31 31 12 1666 11 1703 -2z m-628 -3394 l0 -985 -80 0
c-69 0 -80 2 -80 18 -1 22 -19 45 -47 60 -12 7 -66 12 -127 12 l-106 0 0 940
0 940 220 0 220 0 0 -985z"/>
<path d="M2770 4517 c-88 -30 -145 -65 -207 -127 -93 -95 -143 -218 -143 -354
0 -230 138 -418 360 -492 68 -22 204 -25 275 -5 236 67 401 294 382 526 -19
217 -156 391 -362 456 -86 27 -220 25 -305 -4z"/>
<path d="M3604 4195 c-45 -19 -57 -64 -52 -187 4 -95 5 -102 31 -124 36 -31
78 -31 114 0 27 23 28 29 31 121 2 53 1 112 -2 131 -11 54 -69 83 -122 59z"/>
</g>
</svg>
