<?xml version="1.0" standalone="no"?>
<!DOCTYPE svg PUBLIC "-//W3C//DTD SVG 20010904//EN"
 "http://www.w3.org/TR/2001/REC-SVG-20010904/DTD/svg10.dtd">
<svg version="1.0" xmlns="http://www.w3.org/2000/svg"
 width="512.000000pt" height="512.000000pt" viewBox="0 0 512.000000 512.000000"
 preserveAspectRatio="xMidYMid meet">

<g transform="translate(0.000000,512.000000) scale(0.100000,-0.100000)"
fill="#000000" stroke="none">
<path d="M3075 5113 c-436 -69 -756 -401 -807 -834 -45 -386 173 -774 530
-944 l62 -29 0 -373 0 -373 -165 0 c-163 0 -165 0 -169 23 -3 12 -26 210 -51
440 -25 230 -51 427 -57 437 -17 28 -53 40 -112 40 l-53 0 -13 46 c-33 118
-152 235 -277 274 -61 19 -93 20 -513 20 -421 0 -452 -1 -513 -20 -126 -39
-239 -153 -277 -279 -20 -64 -20 -88 -18 -886 l3 -820 23 -42 c54 -103 141
-162 248 -171 l64 -5 0 -491 c0 -544 2 -562 63 -665 64 -107 186 -185 315
-202 37 -4 178 -8 315 -9 l247 0 0 -96 c0 -92 1 -97 29 -125 l29 -29 1222 0
1222 0 30 30 30 30 -4 233 c-3 209 -6 237 -25 285 -32 79 -97 158 -166 203
-101 66 -124 69 -454 69 l-293 0 0 1228 0 1227 72 34 c194 94 364 272 449 472
226 531 -71 1134 -631 1279 -84 22 -283 35 -355 23z m324 -193 c210 -59 380
-196 480 -389 113 -219 114 -477 1 -701 -39 -78 -131 -189 -202 -246 -143
-111 -296 -164 -478 -164 -299 0 -556 160 -685 425 -59 123 -78 205 -77 340 1
290 154 540 411 674 174 90 367 111 550 61z m-1490 -1266 c56 -16 123 -69 147
-115 20 -39 19 -39 -29 -39 -44 0 -80 -18 -96 -48 -5 -9 -31 -214 -57 -454
l-49 -438 -82 0 -83 0 0 -85 0 -85 70 0 70 0 0 -32 c0 -18 -9 -109 -20 -203
-11 -93 -20 -176 -20 -182 0 -7 -10 -13 -23 -13 -13 0 -34 -12 -48 -26 -24
-25 -24 -27 -24 -231 l0 -205 28 -24 28 -24 455 0 456 0 29 29 29 29 0 192 c0
126 -4 199 -12 213 -15 28 -38 46 -61 47 -10 0 -20 6 -22 13 -5 14 -45 368
-45 397 0 19 7 20 155 20 l155 0 0 -769 0 -770 -312 -3 -313 -3 -70 -34 c-128
-63 -214 -177 -238 -315 l-11 -66 -274 0 c-183 0 -288 4 -314 12 -53 16 -131
87 -154 140 -18 40 -19 81 -22 539 l-3 497 103 4 c115 5 168 22 231 77 92 82
121 237 64 353 -90 184 -333 223 -477 78 -65 -65 -90 -134 -90 -252 l0 -91
-42 7 c-53 9 -83 28 -108 69 -19 31 -20 56 -20 803 0 880 -3 842 80 925 77 77
81 77 556 78 344 1 419 -2 463 -15z m-562 -1630 c76 -48 74 -160 -4 -211 -19
-13 -48 -17 -107 -18 l-81 0 -3 45 c-5 71 7 127 34 160 41 48 107 58 161 24z
m1171 -316 l-3 -83 -337 -3 -338 -2 0 85 0 85 340 0 341 0 -3 -82z m1637
-1052 c28 -12 67 -41 87 -64 54 -60 68 -119 68 -284 l0 -138 -1110 0 -1110 0
0 138 c0 165 14 224 68 284 20 23 60 52 87 64 l50 24 905 0 905 0 50 -24z"/>
<path d="M3052 4760 c-110 -29 -187 -74 -273 -160 -317 -318 -192 -839 236
-986 67 -23 96 -28 185 -28 89 0 118 5 185 28 156 53 280 160 349 301 86 173
86 359 0 535 -46 93 -159 210 -251 258 -132 69 -291 88 -431 52z"/>
</g>
</svg>
