<?xml version="1.0" standalone="no"?>
<!DOCTYPE svg PUBLIC "-//W3C//DTD SVG 20010904//EN"
 "http://www.w3.org/TR/2001/REC-SVG-20010904/DTD/svg10.dtd">
<svg version="1.0" xmlns="http://www.w3.org/2000/svg"
 width="512.000000pt" height="512.000000pt" viewBox="0 0 512.000000 512.000000"
 preserveAspectRatio="xMidYMid meet">

<g transform="translate(0.000000,512.000000) scale(0.100000,-0.100000)"
fill="#000000" stroke="none">
<path d="M1372 4050 c-56 -12 -142 -51 -189 -87 -57 -44 -121 -137 -143 -212
-20 -65 -20 -89 -18 -1166 l3 -1100 22 -55 c64 -156 206 -262 371 -277 l64 -6
-12 23 c-8 15 -11 46 -8 85 l5 62 -58 11 c-80 17 -145 64 -183 132 l-31 55 0
1090 0 1090 22 41 c29 54 79 102 133 128 39 18 63 21 190 21 168 0 203 -9 268
-68 65 -61 85 -106 90 -207 l4 -85 85 0 85 0 -4 100 c-6 120 -29 186 -92 266
-49 63 -113 109 -195 140 -47 19 -80 23 -211 25 -85 2 -174 -1 -198 -6z"/>
<path d="M2960 3130 l0 -130 -677 0 c-638 0 -680 -2 -718 -19 -117 -54 -142
-186 -52 -279 17 -18 47 -37 67 -42 21 -6 297 -10 708 -10 l672 0 0 -575 0
-575 260 0 260 0 0 880 0 880 -260 0 -260 0 0 -130z"/>
<path d="M2960 925 l0 -215 260 0 260 0 0 215 0 215 -260 0 -260 0 0 -215z"/>
</g>
</svg>
