<?xml version="1.0" standalone="no"?>
<!DOCTYPE svg PUBLIC "-//W3C//DTD SVG 20010904//EN"
 "http://www.w3.org/TR/2001/REC-SVG-20010904/DTD/svg10.dtd">
<svg version="1.0" xmlns="http://www.w3.org/2000/svg"
 width="512.000000pt" height="512.000000pt" viewBox="0 0 512.000000 512.000000"
 preserveAspectRatio="xMidYMid meet">

<g transform="translate(0.000000,512.000000) scale(0.100000,-0.100000)"
fill="#000000" stroke="none">
<path d="M420 4749 c-14 -6 -38 -23 -55 -39 -29 -28 -34 -29 -147 -32 -126 -3
-147 -11 -192 -72 -19 -25 -21 -42 -21 -161 0 -148 6 -166 75 -212 29 -21 45
-23 145 -23 107 0 112 -1 136 -26 29 -31 71 -54 99 -54 17 0 20 -6 20 -44 l0
-44 -152 -4 c-133 -3 -158 -7 -194 -26 -108 -56 -161 -187 -119 -289 42 -101
122 -153 237 -153 l66 0 4 -222 c4 -213 5 -227 32 -303 62 -179 179 -308 349
-385 92 -41 151 -50 332 -50 161 0 164 0 171 -22 17 -58 84 -78 124 -38 19 19
20 33 20 449 0 402 -1 430 -18 452 -34 41 -102 26 -123 -29 -9 -23 -9 -23
-163 -20 -177 3 -193 10 -233 88 -37 72 -33 80 40 80 82 0 124 13 171 52 105
86 114 249 18 344 -59 59 -92 68 -259 72 l-153 4 0 44 c0 39 3 44 23 44 26 0
87 35 105 61 12 18 34 19 388 19 l374 0 0 -263 c0 -147 5 -289 11 -322 22
-117 95 -215 199 -264 75 -35 220 -37 291 -5 96 45 178 143 200 240 l12 54 53
0 c45 0 54 -3 59 -21 10 -29 73 -97 107 -115 28 -14 28 -16 28 -104 l0 -90
-27 -5 c-44 -9 -95 -38 -115 -65 -11 -16 -43 -134 -83 -315 -36 -160 -67 -300
-70 -311 -5 -21 -10 -22 -197 -25 -189 -4 -194 -5 -251 -33 -109 -53 -137
-121 -137 -330 l0 -123 -65 -52 c-329 -267 -539 -688 -571 -1144 -7 -94 -8
-98 -35 -112 -81 -42 -139 -152 -125 -237 15 -91 89 -176 171 -197 62 -16
3108 -16 3170 0 82 21 156 106 171 197 14 85 -44 195 -125 237 -27 14 -28 18
-35 112 -23 329 -129 622 -318 876 -64 87 -176 205 -252 267 l-64 52 -4 151
c-4 181 -20 226 -97 282 -60 44 -125 55 -324 55 -154 0 -157 0 -162 23 -3 12
-34 152 -70 312 -40 181 -72 299 -83 315 -20 27 -71 56 -114 65 l-28 5 0 90
c0 88 0 90 28 104 34 18 97 86 107 115 5 18 14 21 60 21 l53 0 7 -37 c18 -101
94 -199 192 -249 52 -26 68 -29 153 -29 81 0 103 4 150 26 104 49 177 147 199
264 6 33 11 175 11 322 l0 263 374 0 c354 0 376 -1 388 -19 18 -26 79 -61 106
-61 19 0 22 -5 22 -44 l0 -44 -149 -4 c-165 -3 -182 -9 -228 -78 -22 -31 -23
-43 -23 -206 0 -170 0 -173 -25 -202 -76 -91 -73 -216 7 -307 67 -76 70 -76
508 -73 l385 3 40 26 c52 34 69 55 94 109 36 78 25 162 -30 232 l-29 37 0 166
c0 189 -7 216 -66 261 -37 28 -40 29 -186 32 l-148 4 0 44 c0 38 3 44 20 44
28 0 70 23 99 54 24 25 29 26 136 26 100 0 116 2 145 23 69 46 75 64 75 212 0
119 -2 136 -21 161 -45 61 -66 69 -192 72 -113 3 -118 4 -147 32 -44 42 -75
50 -191 50 -115 0 -154 -11 -193 -54 l-24 -26 -546 0 c-542 0 -546 0 -559 21
-7 11 -32 29 -55 40 -40 18 -73 19 -627 19 -554 0 -587 -1 -627 -19 -23 -11
-48 -29 -55 -40 -13 -21 -17 -21 -559 -21 l-546 0 -24 26 c-40 44 -78 54 -196
53 -59 0 -119 -5 -133 -10z m220 -304 l0 -165 -85 0 -85 0 0 165 0 165 85 0
85 0 0 -165z m2480 0 l0 -165 -560 0 -560 0 0 165 0 165 560 0 560 0 0 -165z
m1530 0 l0 -165 -85 0 -85 0 0 165 0 165 85 0 85 0 0 -165z m-4330 0 l0 -85
-85 0 -85 0 0 85 0 85 85 0 85 0 0 -85z m1200 0 l0 -85 -365 0 -365 0 0 85 0
85 365 0 365 0 0 -85z m320 0 l0 -85 -85 0 -85 0 0 85 0 85 85 0 85 0 0 -85z
m1610 0 l0 -85 -85 0 -85 0 0 85 0 85 85 0 85 0 0 -85z m880 0 l0 -85 -365 0
-365 0 0 85 0 85 365 0 365 0 0 -85z m640 0 l0 -85 -85 0 -85 0 0 85 0 85 85
0 85 0 0 -85z m-3087 -261 c42 -54 38 -54 677 -54 639 0 635 0 677 54 20 25
25 26 117 26 l96 0 0 -268 c0 -314 -6 -348 -71 -406 -49 -45 -76 -56 -138 -56
-85 0 -172 66 -196 148 -6 22 -5 22 85 22 50 0 100 4 110 10 27 14 41 62 26
91 -22 44 -47 49 -271 49 l-210 1 -30 47 c-17 27 -50 59 -79 76 -41 26 -58 30
-116 30 -58 0 -75 -4 -116 -30 -29 -17 -62 -49 -79 -76 l-30 -47 -210 -1
c-224 0 -249 -5 -271 -49 -15 -29 -1 -77 26 -91 10 -6 60 -10 110 -10 90 0 91
0 84 -22 -28 -93 -102 -148 -198 -148 -59 0 -86 11 -135 56 -65 58 -71 92 -71
406 l0 268 96 0 c92 0 97 -1 117 -26z m-947 -327 c31 -36 31 -77 -1 -111 l-24
-26 -354 0 c-341 0 -354 1 -375 20 -29 27 -37 63 -20 96 25 53 34 54 406 52
l344 -3 24 -28z m3954 -92 l0 -125 -325 0 -325 0 0 125 0 125 325 0 325 0 0
-125z m-2299 35 c23 0 49 -42 49 -79 0 -31 -6 -44 -26 -60 -55 -43 -134 -11
-134 54 0 18 3 41 6 50 8 20 63 46 82 40 8 -3 18 -5 23 -5z m-1946 -277 c16
-109 81 -198 180 -245 58 -27 65 -28 218 -28 l157 0 0 -245 0 -245 -163 0
c-174 0 -215 8 -317 60 -61 31 -160 134 -192 200 -49 98 -58 157 -58 362 l0
188 84 0 84 0 7 -47z m4293 -57 c40 -36 37 -100 -7 -133 -12 -9 -107 -12 -369
-13 l-353 0 -24 25 c-15 14 -25 36 -25 53 0 35 32 79 63 85 12 3 173 4 358 3
313 -1 338 -2 357 -20z m-2278 -299 c0 -2 27 -124 60 -272 33 -148 60 -275 60
-282 0 -10 -44 -13 -220 -13 -174 0 -220 3 -220 13 0 22 110 511 120 535 9 21
16 22 105 22 52 0 95 -1 95 -3z m-715 -750 c-51 -37 -127 -110 -157 -151 l-28
-39 0 86 c0 81 2 87 26 106 22 17 41 21 108 21 l81 -1 -30 -22z m879 -7 c211
-57 383 -188 437 -330 96 -257 -127 -513 -516 -591 -33 -6 -116 -12 -185 -12
-69 0 -152 6 -185 12 -326 66 -538 253 -537 475 1 194 189 377 458 445 120 30
118 30 289 26 126 -2 177 -8 239 -25z m510 9 c24 -19 26 -25 26 -106 l0 -86
-28 39 c-30 41 -106 114 -157 151 l-30 22 81 1 c67 0 86 -4 108 -21z m-1734
-1044 l0 -535 -241 0 -242 0 6 98 c14 243 104 502 249 713 49 73 211 259 224
259 2 0 4 -241 4 -535z m2149 281 c107 -157 189 -350 226 -531 16 -78 35 -282
26 -291 -2 -2 -112 -4 -243 -4 l-238 0 0 54 c0 67 -26 106 -71 106 -60 0 -89
-39 -89 -121 l0 -39 -800 0 -800 0 0 428 0 427 27 -35 c108 -141 284 -246 511
-302 126 -32 398 -32 524 0 227 56 403 161 511 302 l27 35 0 -222 c0 -129 4
-233 10 -249 27 -69 103 -73 138 -7 9 15 12 124 12 365 l1 343 89 -92 c49 -51
112 -126 139 -167z m392 -1005 c21 -25 25 -71 9 -101 -5 -10 -24 -23 -41 -29
-23 -8 -370 -11 -1190 -11 l-1159 0 0 85 0 85 1181 -2 1181 -3 19 -24z"/>
<path d="M2390 2254 c-244 -65 -363 -241 -274 -404 36 -66 104 -123 146 -123
35 0 78 41 78 74 0 12 -22 43 -50 71 -42 42 -50 56 -50 88 0 75 113 141 272
159 93 10 122 30 120 81 -1 56 -24 70 -111 69 -42 0 -101 -7 -131 -15z"/>
<path d="M2801 2164 c-31 -39 -26 -58 29 -119 39 -43 50 -63 50 -88 -1 -75
-103 -137 -261 -157 -104 -13 -129 -28 -129 -79 0 -60 26 -77 113 -74 241 9
429 146 429 312 0 148 -163 292 -231 205z"/>
</g>
</svg>
