<?xml version="1.0" standalone="no"?>
<!DOCTYPE svg PUBLIC "-//W3C//DTD SVG 20010904//EN"
 "http://www.w3.org/TR/2001/REC-SVG-20010904/DTD/svg10.dtd">
<svg version="1.0" xmlns="http://www.w3.org/2000/svg"
 width="512.000000pt" height="512.000000pt" viewBox="0 0 512.000000 512.000000"
 preserveAspectRatio="xMidYMid meet">

<g transform="translate(0.000000,512.000000) scale(0.100000,-0.100000)"
fill="#000000" stroke="none">
<path d="M1688 5061 c-104 -42 -177 -131 -199 -243 l-11 -57 -62 -5 c-33 -3
-162 -10 -286 -16 -382 -19 -437 -24 -468 -47 -50 -37 -56 -62 -43 -193 6 -65
11 -128 11 -140 0 -21 0 -21 -173 -14 -201 8 -256 -2 -324 -60 -62 -54 -85
-111 -84 -215 2 -181 23 -268 76 -310 51 -40 85 -44 218 -27 233 30 413 47
572 53 170 6 204 15 224 59 5 12 15 80 21 149 14 148 4 192 -56 244 -40 36
-70 44 -229 65 -184 25 -187 26 -182 40 3 8 9 61 13 119 3 58 10 111 14 117 6
10 68 10 301 -4 161 -9 294 -17 295 -19 1 -1 -4 -45 -12 -97 -20 -143 -18
-259 7 -332 44 -131 136 -235 264 -298 98 -49 151 -57 430 -65 202 -6 211 -7
224 -28 33 -49 120 -125 163 -142 l46 -17 0 -112 c0 -67 6 -138 16 -179 9 -38
16 -70 16 -71 0 -2 -31 -6 -69 -9 -103 -9 -152 -41 -187 -122 -14 -33 -18 -86
-22 -289 l-5 -249 -270 7 c-262 6 -271 6 -313 -15 -67 -32 -91 -81 -99 -204
-21 -314 -92 -582 -222 -838 -172 -337 -415 -604 -748 -820 -141 -91 -153
-117 -157 -333 -2 -145 0 -163 19 -199 24 -46 43 -65 93 -91 33 -18 66 -19
625 -17 757 3 1305 18 2355 63 124 5 423 17 665 25 475 17 475 17 496 73 17
44 7 283 -13 314 -9 14 -61 56 -115 94 -439 303 -733 719 -864 1219 -39 151
-58 282 -66 457 -10 241 -3 237 -371 245 l-267 6 0 246 c-1 265 -7 308 -52
361 -40 48 -92 70 -168 70 -36 0 -65 4 -65 10 0 5 7 35 15 67 12 42 15 96 14
194 l-3 136 43 38 c23 21 51 56 62 77 l19 38 138 0 c75 0 214 5 307 9 140 8
182 14 237 34 137 49 235 137 294 262 53 113 59 202 28 437 l-6 47 44 5 c23 3
140 12 258 21 118 9 243 18 278 22 74 7 84 -8 17 -27 -55 -15 -128 -77 -158
-134 -19 -36 -21 -54 -19 -164 1 -68 -2 -140 -8 -161 l-10 -39 -73 -4 c-81 -4
-128 -23 -177 -71 -71 -69 -87 -159 -61 -341 12 -83 31 -113 94 -144 l46 -24
124 16 c174 23 171 23 163 -16 -10 -51 -52 -131 -96 -181 -35 -40 -163 -119
-172 -107 -2 3 -15 34 -29 70 -34 90 -54 89 -91 -6 -61 -160 -91 -407 -69
-582 18 -145 80 -314 116 -316 15 -1 54 63 72 120 11 36 22 54 33 54 24 0 178
53 230 80 176 88 315 250 378 437 23 69 26 94 26 213 0 125 -10 196 -40 275
-5 13 9 15 105 15 118 0 171 13 189 47 5 10 13 71 17 135 7 108 6 120 -15 163
-26 54 -83 92 -155 101 -45 7 -49 10 -69 53 -18 40 -21 65 -21 191 -1 141 -2
147 -30 199 -31 56 -84 100 -147 120 -28 9 -38 19 -43 41 -7 30 -56 80 -79 80
-6 0 -117 9 -246 20 -220 18 -547 40 -605 40 -22 0 -25 4 -25 37 0 48 -33 116
-73 149 -59 50 -102 62 -292 79 -464 41 -588 47 -1010 51 -416 4 -443 3 -487
-15z m526 -292 c-29 -72 -60 -199 -70 -288 l-7 -63 -121 7 c-211 12 -258 20
-283 50 -21 24 -23 36 -23 150 0 127 8 171 37 193 12 9 80 12 254 12 l238 0
-25 -61z m-756 -215 c26 -5 32 -13 42 -51 30 -121 114 -206 229 -232 28 -6
151 -2 393 14 436 29 803 45 1036 45 214 0 260 10 321 71 25 25 45 57 52 83 6
22 13 46 14 52 3 10 182 31 190 22 5 -5 -24 -249 -36 -298 -15 -63 -49 -118
-108 -174 -95 -88 -108 -91 -396 -89 -137 2 -283 5 -323 9 -71 6 -73 6 -91 42
-27 52 -98 117 -156 144 -70 32 -180 31 -250 -2 -58 -29 -116 -84 -144 -138
l-20 -40 -238 -7 c-250 -8 -287 -4 -365 36 -78 40 -143 115 -174 201 -13 37
-44 245 -44 295 0 25 13 28 68 17z m-789 -476 c-8 -31 -37 -62 -109 -117 -18
-13 -39 -39 -48 -57 -18 -39 -17 -38 -148 -22 l-96 11 7 96 c4 53 8 97 9 98 1
1 243 16 363 22 31 1 31 0 22 -31z m2046 -52 c87 -67 95 -181 19 -266 -77 -85
-199 -79 -268 14 -16 21 -21 42 -21 95 0 58 4 74 28 109 59 84 167 105 242 48z
m1619 -218 c8 -33 7 -158 -1 -158 -5 0 -55 7 -113 15 -58 8 -108 15 -112 15
-10 0 -10 42 -2 104 l7 46 107 0 c103 0 108 -1 114 -22z m125 -434 c12 -15 21
-38 21 -53 0 -14 11 -49 24 -78 l24 -51 -36 -62 c-75 -127 -204 -240 -331
-290 -29 -11 -55 -19 -56 -18 -1 2 -5 45 -7 95 l-5 93 46 22 c105 52 215 195
244 319 10 40 16 49 34 49 12 0 31 -12 42 -26z m-1735 -510 c15 -53 36 -121
47 -151 13 -38 15 -52 5 -44 -30 25 -103 41 -195 42 -121 2 -170 -13 -232 -69
-27 -24 -49 -42 -49 -40 0 2 13 40 29 84 16 43 41 123 56 177 l28 97 142 0
142 0 27 -96z m736 -523 l0 -59 -185 -62 c-117 -39 -204 -74 -236 -95 l-49
-34 -45 20 c-24 11 -79 29 -122 41 -103 27 -315 30 -416 5 -291 -72 -534 -282
-639 -554 -103 -265 -69 -581 88 -816 30 -45 52 -87 49 -95 -2 -7 -50 -78
-106 -158 -63 -89 -99 -150 -95 -160 3 -8 -6 -33 -21 -55 -25 -38 -30 -41 -62
-35 -20 3 -251 6 -513 6 l-478 0 0 78 0 77 62 40 c368 237 685 623 847 1032
100 252 161 547 161 778 l0 75 108 1 c59 1 346 7 637 13 292 7 639 14 773 14
l242 2 0 -59z m-774 -321 c43 -11 112 -36 152 -55 58 -27 72 -38 68 -52 -3
-10 -15 -57 -27 -105 l-21 -86 -71 34 c-209 98 -434 59 -598 -105 -165 -165
-203 -406 -95 -612 l34 -67 -30 -28 c-16 -16 -53 -62 -81 -101 -28 -40 -54
-73 -59 -73 -13 0 -97 119 -128 180 -56 112 -75 193 -75 330 1 99 5 141 23
203 62 217 218 402 416 493 143 65 339 83 492 44z m23 -311 c75 -26 133 -65
127 -87 -45 -168 -86 -244 -177 -327 -68 -62 -458 -278 -475 -264 -6 5 -24 37
-40 72 -39 87 -45 216 -15 315 73 242 338 374 580 291z m224 -172 c27 -41 77
-157 77 -179 0 -2 -26 -3 -58 -3 -60 -1 -112 -23 -112 -48 1 -6 18 -24 39 -38
80 -56 105 -173 53 -245 -68 -92 -153 -152 -259 -179 -145 -38 -324 6 -417
103 l-28 30 23 15 c13 8 101 56 194 107 193 104 247 142 306 214 48 58 102
165 120 236 7 27 16 47 20 45 4 -3 23 -29 42 -58z m836 -433 c22 -18 31 -35
31 -55 0 -16 -4 -29 -9 -29 -21 0 -61 47 -67 78 -8 39 4 41 45 6z m192 -239
c122 -111 269 -226 391 -307 54 -36 95 -67 92 -71 -7 -7 -81 21 -162 62 -87
44 -208 138 -292 227 -78 83 -147 174 -133 174 5 0 52 -38 104 -85z"/>
</g>
</svg>
