<?xml version="1.0" standalone="no"?>
<!DOCTYPE svg PUBLIC "-//W3C//DTD SVG 20010904//EN"
 "http://www.w3.org/TR/2001/REC-SVG-20010904/DTD/svg10.dtd">
<svg version="1.0" xmlns="http://www.w3.org/2000/svg"
 width="512.000000pt" height="512.000000pt" viewBox="0 0 512.000000 512.000000"
 preserveAspectRatio="xMidYMid meet">

<g transform="translate(0.000000,512.000000) scale(0.100000,-0.100000)"
fill="#000000" stroke="none">
<path d="M1805 4071 l-100 -6 -6 -38 c-6 -39 -52 -97 -76 -97 -11 0 -13 -23
-11 -112 l3 -111 33 -11 c46 -16 100 -62 119 -102 l17 -34 607 0 607 0 12 30
c16 40 79 95 124 110 l36 12 0 109 c0 60 -4 109 -9 109 -25 0 -72 55 -82 96
l-11 44 -463 0 c-254 0 -515 2 -581 4 -65 2 -164 1 -219 -3z m1055 -50 c0 -21
-84 -25 -475 -26 -372 0 -463 5 -451 23 7 12 926 15 926 3z"/>
<path d="M1280 4060 c-147 -15 -203 -35 -258 -92 -58 -61 -68 -151 -26 -236
28 -57 65 -85 141 -107 49 -14 235 -48 237 -43 20 37 65 81 101 98 l45 22 0
111 0 112 -30 17 c-31 18 -60 70 -60 108 0 23 -14 23 -150 10z m111 -55 c-1
-5 -37 -15 -80 -21 -92 -13 -155 -40 -199 -83 -26 -26 -32 -41 -32 -74 0 -87
64 -140 187 -155 43 -5 59 -11 61 -25 3 -14 -4 -17 -41 -17 -91 0 -222 63
-252 121 -19 36 -19 90 0 136 28 66 62 92 157 118 59 16 205 16 199 0z"/>
<path d="M3350 4049 c0 -35 -32 -91 -62 -108 l-28 -16 0 -113 0 -113 33 -14
c35 -15 74 -47 97 -83 l15 -23 94 16 c141 25 212 49 248 87 101 104 77 264
-49 329 -52 26 -146 46 -255 53 -90 6 -93 5 -93 -15z m285 -49 c52 -16 119
-85 132 -136 20 -84 -23 -151 -128 -199 -72 -32 -171 -40 -177 -14 -2 13 9 18
55 23 74 8 153 46 176 85 9 16 17 49 17 74 0 41 -4 49 -41 81 -48 41 -111 64
-200 74 -39 4 -64 12 -67 21 -4 11 13 12 94 8 55 -2 117 -10 139 -17z"/>
<path d="M4375 3897 c8 -20 15 -56 15 -80 0 -43 0 -43 55 -66 83 -35 173 -96
238 -165 176 -184 250 -575 176 -934 -31 -152 -71 -272 -90 -272 -3 0 -12 13
-19 29 -6 16 -28 42 -48 58 -174 140 -424 119 -576 -48 -66 -73 -96 -153 -96
-253 0 -159 153 -306 328 -315 39 -2 72 -7 72 -12 0 -13 -96 -92 -162 -132
-126 -76 -257 -102 -435 -85 -113 10 -124 13 -127 32 -44 239 -103 374 -214
486 -121 121 -238 177 -393 187 -84 6 -86 6 -99 37 -21 49 -138 158 -231 215
-128 79 -215 103 -374 103 -171 1 -258 -23 -400 -108 -62 -38 -165 -135 -230
-217 -17 -22 -29 -26 -81 -29 l-62 -3 -39 50 c-88 112 -218 204 -355 252 -56
20 -99 27 -186 31 -103 4 -120 2 -197 -23 -46 -15 -119 -47 -162 -72 -43 -24
-109 -59 -148 -77 -144 -68 -231 -155 -301 -301 -73 -152 -82 -252 -38 -383
62 -186 212 -306 460 -367 129 -32 220 -45 322 -45 64 0 82 -3 82 -14 0 -8 3
-21 6 -29 4 -11 -9 -19 -53 -32 -32 -9 -69 -26 -82 -38 -58 -54 -79 -172 -41
-234 29 -48 87 -72 208 -88 87 -12 324 -15 1287 -15 1208 0 1325 4 1420 40 97
37 129 143 74 252 -23 45 -49 64 -116 84 -56 16 -58 19 -47 85 l6 37 162 5
c260 8 411 49 575 157 152 100 270 256 335 443 19 52 47 115 63 138 142 207
232 588 202 859 -33 305 -116 522 -253 662 -125 129 -266 210 -390 224 l-56 7
15 -36z m205 -54 c139 -75 253 -190 320 -323 55 -109 116 -315 134 -453 7 -54
-10 -36 -19 19 -10 68 -83 290 -117 359 -80 159 -211 302 -353 386 -119 70
-91 80 35 12z m-1965 -1243 c80 -25 145 -56 145 -69 0 -4 -42 2 -93 14 -218
53 -424 53 -609 -1 -10 -3 -18 -1 -18 5 0 12 95 48 175 67 93 21 311 13 400
-16z m-1492 6 c82 -16 204 -68 279 -119 87 -58 50 -56 -69 4 -151 76 -218 93
-343 86 -52 -3 -119 -12 -147 -20 -70 -19 -74 4 -5 27 111 36 181 42 285 22z
m3487 -117 c44 -24 72 -60 34 -44 -11 4 -44 17 -74 28 -157 55 -383 -48 -459
-211 -26 -56 -48 -70 -36 -24 18 75 106 183 183 225 114 62 267 74 352 26z
m-2038 -29 c196 -66 394 -260 459 -450 32 -95 37 -233 11 -331 l-19 -77 23
-11 c21 -9 24 -18 24 -59 0 -79 -46 -121 -99 -92 -15 7 -27 -1 -65 -45 -81
-94 -228 -185 -358 -221 -86 -24 -302 -30 -370 -10 -85 24 -178 69 -228 110
l-45 36 -388 4 c-213 3 -392 8 -398 12 -8 4 -7 10 1 18 8 8 115 11 376 9 200
-1 364 2 364 6 0 4 -9 16 -20 26 -39 35 -103 146 -127 222 -53 164 -40 347 38
511 69 145 272 301 461 352 96 27 264 22 360 -10z m-1417 0 c58 -25 194 -120
241 -168 l34 -35 -48 -33 c-27 -17 -78 -64 -115 -104 l-66 -71 21 58 c40 114
10 241 -76 327 -25 26 -44 46 -42 46 3 0 26 -9 51 -20z m-307 -87 c60 -28 147
-109 163 -150 27 -72 -1 -143 -79 -198 -38 -26 -54 -30 -120 -33 -96 -4 -130
14 -168 90 -36 70 -36 135 -1 211 51 112 99 130 205 80z m-388 1 c0 -3 -27
-36 -61 -72 -37 -41 -76 -99 -102 -151 -41 -83 -42 -87 -46 -204 -2 -72 2
-143 9 -179 15 -68 7 -87 -15 -35 -24 59 -36 127 -36 212 0 141 54 270 156
372 54 54 95 79 95 57z m4064 -38 c78 -50 108 -176 56 -231 -62 -66 -176 -93
-247 -57 -93 48 -108 156 -35 244 55 65 163 86 226 44z m-2786 -88 c-3 -7 -27
-16 -55 -20 -226 -33 -363 -181 -505 -548 -15 -39 -26 -6 -16 48 32 177 162
392 276 460 74 43 169 71 240 72 47 0 63 -3 60 -12z m1501 -7 c85 -26 140 -61
200 -127 92 -100 175 -272 196 -403 12 -74 -15 -45 -61 67 -104 253 -226 387
-394 436 -30 8 -72 18 -92 21 -21 3 -38 10 -38 15 0 17 126 11 189 -9z m-2785
-241 c42 -80 86 -127 148 -161 63 -34 63 -34 198 -34 131 0 137 1 201 31 37
18 85 48 107 68 l40 37 -23 -68 c-21 -61 -41 -150 -60 -267 l-6 -39 -147 6
c-162 6 -274 32 -368 84 -68 38 -150 122 -179 184 -55 121 -37 275 44 373 15
17 16 11 21 -80 4 -69 11 -110 24 -134z m3940 -281 c-30 -34 -163 -108 -233
-129 -109 -34 -192 -43 -287 -30 -89 11 -114 18 -114 29 0 4 39 3 88 -3 103
-11 236 3 329 35 34 11 100 44 145 73 46 29 85 51 87 49 2 -1 -4 -12 -15 -24z
m-677 -146 c-3 -10 -5 -2 -5 17 0 19 2 27 5 18 2 -10 2 -26 0 -35z m-2824 -24
c160 -12 197 -21 141 -35 -53 -13 -372 29 -394 53 -3 3 15 3 40 0 25 -3 120
-11 213 -18z m2783 -202 c4 -4 5 -10 1 -13 -3 -3 -129 -10 -279 -15 -279 -9
-498 -2 -498 16 0 6 43 13 97 16 131 8 670 5 679 -4z m77 -89 c98 -42 136
-126 81 -182 -34 -33 -128 -62 -232 -71 -83 -8 -161 0 -146 14 5 5 63 16 129
25 177 25 243 62 216 122 -11 26 -74 75 -120 94 -17 7 -28 16 -25 22 6 10 28
5 97 -24z m-2613 17 c0 -2 -21 -16 -47 -29 -74 -38 -105 -68 -105 -99 0 -60
59 -87 240 -110 57 -7 101 -17 100 -22 -2 -6 -50 -9 -118 -9 -127 2 -212 25
-257 70 -54 54 -10 145 90 183 49 19 97 27 97 16z m1807 -229 c12 -12 -18 -24
-87 -36 -78 -14 -939 -9 -982 6 -57 19 -26 29 104 34 185 8 957 4 965 -4z"/>
<path d="M2280 2061 c-76 -25 -127 -70 -159 -141 -33 -71 -28 -125 18 -201 86
-144 202 -181 348 -112 83 40 123 101 123 189 0 110 -52 194 -147 239 -59 28
-141 40 -183 26z"/>
<path d="M290 3420 c-181 -14 -227 -40 -237 -131 -5 -49 -3 -58 17 -76 12 -12
34 -24 48 -27 40 -10 992 -20 1036 -12 58 11 86 45 86 105 0 68 -32 105 -103
121 -120 26 -618 37 -847 20z m683 -49 c149 -14 48 -23 -315 -27 -310 -5 -381
-3 -371 7 7 7 45 16 85 19 93 9 512 10 601 1z"/>
<path d="M3843 3420 c-259 -15 -303 -35 -303 -134 0 -44 5 -61 24 -83 l24 -28
179 -5 c98 -3 172 -9 166 -13 -8 -5 -13 -30 -13 -60 0 -58 -5 -69 -37 -86 -27
-14 -46 -6 -83 34 -106 114 -217 53 -282 -155 -20 -66 -23 -95 -23 -246 0
-170 0 -171 30 -229 41 -80 74 -99 174 -98 148 1 257 55 393 195 89 91 99 106
144 242 26 75 43 109 70 137 30 30 35 42 30 64 -5 18 1 38 19 69 18 31 25 57
25 94 0 29 3 52 8 53 4 0 72 4 151 8 142 8 145 8 169 36 20 24 23 35 18 72 -3
24 -10 52 -16 62 -13 25 -69 50 -138 62 -79 13 -557 19 -729 9z m589 -49 c55
-7 77 -15 66 -26 -8 -9 -758 7 -758 16 0 4 19 10 43 12 77 7 591 5 649 -2z
m-112 -260 c0 -10 -18 -44 -39 -76 -29 -42 -48 -89 -72 -174 -17 -64 -41 -136
-52 -161 -25 -54 -199 -236 -217 -225 -7 4 8 27 44 64 83 87 130 168 166 283
50 162 58 183 94 224 18 21 38 49 45 62 14 27 31 29 31 3z m-630 -57 c20 -50
6 -349 -26 -568 -18 -125 -30 -164 -45 -149 -7 7 -3 65 11 179 22 184 40 480
33 532 -6 39 13 44 27 6z"/>
</g>
</svg>
