<?xml version="1.0" standalone="no"?>
<!DOCTYPE svg PUBLIC "-//W3C//DTD SVG 20010904//EN"
 "http://www.w3.org/TR/2001/REC-SVG-20010904/DTD/svg10.dtd">
<svg version="1.0" xmlns="http://www.w3.org/2000/svg"
 width="900.000000pt" height="520.000000pt" viewBox="0 0 900.000000 520.000000"
 preserveAspectRatio="xMidYMid meet">

<g transform="translate(0.000000,520.000000) scale(0.100000,-0.100000)"
fill="#000000" stroke="none">
<path d="M6849 5166 c19 -22 -18 -37 -77 -32 -37 3 -52 1 -56 -10 -3 -8 -12
-14 -19 -14 -8 0 -20 -7 -27 -15 -11 -13 -10 -14 6 -9 11 4 16 3 11 -2 -5 -5
-25 -14 -45 -19 -23 -7 -38 -18 -40 -29 -3 -15 0 -17 14 -12 14 5 16 4 8 -4
-7 -7 -75 -13 -180 -17 l-169 -5 -10 24 c-7 16 -20 24 -43 26 -18 2 -36 10
-39 18 -4 12 -16 13 -52 8 -25 -4 -49 -11 -52 -17 -4 -5 -13 3 -20 19 -18 37
-54 44 -63 12 -3 -13 -6 -35 -6 -50 0 -32 -15 -38 -23 -9 -4 16 -13 18 -78 15
-119 -4 -202 -3 -212 3 -5 3 -13 -1 -18 -8 -13 -21 -21 -4 -28 56 -3 31 -10
56 -16 56 -5 0 -50 -2 -100 -5 -49 -3 -216 -8 -370 -11 -154 -3 -302 -8 -330
-10 -27 -3 -156 -7 -285 -10 -129 -3 -280 -8 -335 -11 -55 -3 -167 -7 -250 -9
l-150 -3 -6 -38 c-4 -21 -4 -105 0 -186 3 -82 3 -148 -1 -148 -5 0 -8 47 -8
105 0 138 -6 145 -104 138 -63 -5 -73 -3 -90 16 -27 30 -53 26 -92 -13 l-33
-33 -7 43 c-4 32 -11 44 -23 44 -25 0 -43 -15 -57 -47 -8 -19 -13 -22 -13 -10
-1 14 -10 17 -50 17 -45 0 -49 -2 -56 -27 -4 -18 -9 -23 -14 -15 -11 18 -61
-3 -68 -27 -3 -11 -10 -18 -16 -15 -7 2 -89 0 -184 -4 -161 -7 -170 -6 -162
11 8 14 5 17 -21 17 -17 0 -29 4 -25 9 7 12 -33 51 -52 51 -7 0 -13 10 -13 23
0 55 -117 77 -166 32 -15 -14 -25 -28 -22 -30 3 -3 11 1 18 10 14 16 65 21 55
5 -3 -5 -15 -10 -25 -10 -10 0 -22 -6 -26 -12 -4 -7 -4 -10 1 -6 9 9 35 -9 35
-23 0 -5 -4 -9 -10 -9 -5 0 -10 6 -10 14 0 15 -11 15 -45 1 -21 -9 -51 -45
-48 -56 1 -4 -9 -10 -22 -13 -18 -5 -25 -13 -25 -31 0 -13 -5 -27 -10 -30 -6
-3 -10 -2 -10 3 0 5 -30 7 -68 4 -53 -3 -72 -1 -84 11 -17 18 -38 5 -38 -24 0
-30 -48 -29 -107 2 -68 36 -142 40 -173 9 -11 -11 -20 -27 -20 -36 0 -22 29
-43 58 -44 21 0 22 -2 8 -15 -17 -17 -36 -20 -36 -5 0 6 -6 10 -12 10 -24 -1
57 -61 106 -78 32 -11 51 -25 57 -40 8 -20 15 -23 52 -21 48 3 67 -5 67 -28 0
-14 -10 -15 -67 -10 -38 4 -99 16 -138 26 -43 12 -72 16 -76 10 -3 -6 -11 -4
-18 5 -25 30 -91 0 -91 -42 0 -16 72 -90 160 -164 30 -26 52 -50 48 -53 -4 -4
-47 0 -95 9 -150 28 -142 28 -138 5 2 -12 10 -28 17 -38 7 -9 -4 -1 -24 18
-40 37 -57 36 -83 -3 -14 -21 -14 -28 -2 -58 8 -18 39 -56 70 -85 32 -28 57
-53 57 -55 0 -2 -42 -3 -94 -3 -78 0 -97 -3 -115 -19 -43 -39 -18 -117 54
-172 l37 -28 -73 -17 c-54 -13 -80 -24 -96 -44 -33 -38 -30 -86 8 -129 l30
-35 -36 -33 c-45 -41 -51 -91 -17 -137 21 -28 21 -29 2 -46 -11 -10 -24 -33
-30 -51 -10 -29 -9 -40 8 -72 17 -33 18 -41 6 -57 -31 -42 -10 -114 41 -144
18 -10 17 -11 -7 -5 -24 5 -28 3 -30 -17 -2 -43 2 -61 21 -88 16 -23 17 -28 4
-40 -11 -10 -13 -25 -9 -55 4 -22 6 -52 5 -66 -6 -92 -3 -109 21 -137 14 -15
18 -22 8 -15 -14 11 -17 10 -23 -8 -3 -11 -1 -37 6 -58 11 -34 17 -89 18 -180
1 -18 6 -43 13 -55 6 -12 12 -44 14 -72 9 -178 29 -232 105 -290 33 -24 39
-34 34 -55 -3 -14 2 -38 10 -54 13 -24 14 -35 4 -58 -10 -24 -9 -36 6 -67 13
-31 15 -43 5 -60 -12 -24 -6 -57 18 -83 12 -15 13 -23 2 -47 -12 -31 -5 -56
28 -93 10 -12 11 -18 3 -18 -18 0 -32 -47 -22 -73 5 -13 23 -30 40 -37 l31
-12 -32 -17 c-25 -12 -34 -23 -36 -48 -3 -27 2 -34 27 -47 16 -9 53 -16 81
-16 30 0 49 -4 45 -9 -3 -6 -28 -10 -56 -9 -56 0 -89 -21 -89 -56 0 -34 15
-48 56 -56 33 -6 36 -8 19 -15 -55 -22 -73 -76 -36 -109 19 -17 19 -18 0 -51
-23 -38 -17 -85 10 -85 10 0 12 -3 5 -8 -19 -12 -34 -49 -34 -83 l0 -32 23 19
c21 18 21 18 -1 -8 -24 -27 -47 -98 -32 -98 5 0 12 5 15 10 3 6 10 10 15 10 4
0 -17 -26 -47 -57 -69 -72 -94 -120 -100 -195 -7 -74 15 -136 64 -179 118
-103 245 -88 353 42 83 99 97 141 103 291 3 70 8 131 11 136 3 6 63 29 133 52
127 42 315 115 426 164 l57 26 0 -25 c0 -14 -4 -25 -8 -25 -20 0 -99 -214
-122 -333 -11 -56 -25 -128 -31 -159 -7 -32 -18 -63 -25 -69 -8 -6 -14 -20
-14 -30 0 -21 -20 -25 -36 -9 -8 8 -16 -6 -27 -46 -15 -52 -15 -60 -1 -75 30
-33 122 -54 277 -64 43 -2 81 -6 86 -9 4 -3 39 -6 77 -7 61 -1 70 -4 71 -21 1
-10 10 -36 20 -56 25 -51 70 -65 195 -60 108 4 130 16 163 84 14 30 21 34 53
34 20 0 143 3 272 6 129 3 286 5 348 4 80 -1 112 2 112 11 0 8 4 8 13 1 15
-13 176 -15 1007 -12 349 1 706 -2 792 -6 l158 -7 6 -34 c11 -58 39 -68 184
-68 142 0 154 4 170 65 l10 38 98 7 c53 3 126 8 162 11 74 4 210 35 210 47 0
5 4 6 9 2 19 -11 43 27 37 59 -7 37 -29 56 -56 49 -14 -4 -20 0 -20 11 0 9 -4
16 -8 16 -11 0 -36 126 -28 138 3 6 0 22 -8 36 -7 15 -12 47 -11 72 2 24 0 42
-5 39 -4 -3 -10 4 -13 15 -3 11 -2 20 3 20 4 0 3 20 -3 45 -6 25 -14 45 -19
45 -5 0 -7 4 -3 9 3 6 -4 15 -15 21 -11 6 -20 7 -20 3 0 -4 -4 -3 -8 4 -5 9
-19 9 -51 2 -24 -5 -49 -8 -55 -5 -6 2 -3 5 7 5 18 1 25 21 7 21 -5 0 -10 5
-10 10 0 6 7 10 15 10 16 0 20 12 8 24 -5 4 -8 179 -8 389 0 210 -4 391 -8
402 -7 16 -7 17 2 5 9 -12 11 -9 11 15 0 17 -6 37 -12 43 -9 9 -10 15 -2 20
11 8 15 122 4 122 -4 0 -5 11 -2 25 2 14 -4 39 -17 61 -12 19 -19 40 -16 45 4
5 1 9 -4 9 -6 0 -11 6 -11 14 0 8 -5 18 -12 22 -7 5 -8 3 -3 -6 5 -9 4 -11 -3
-6 -7 4 -12 14 -12 22 0 8 -5 14 -11 14 -5 0 -27 13 -47 29 -20 16 -48 31 -62
35 -73 19 -219 23 -635 16 -114 -2 -488 10 -493 15 -3 3 18 5 47 5 74 0 144
19 137 37 -3 8 -6 17 -6 19 0 2 -9 4 -20 4 -27 0 -25 18 3 22 14 2 23 11 25
27 3 20 0 23 -16 19 -18 -5 -22 2 -32 58 -7 35 -16 64 -21 64 -5 0 -8 11 -7
24 1 14 6 22 10 20 4 -3 8 -1 8 5 0 5 -4 13 -10 16 -5 3 -10 15 -10 27 0 11
-9 32 -19 47 -11 15 -23 39 -26 54 -4 15 -11 24 -16 21 -5 -3 -9 0 -9 5 0 16
-3 25 -12 36 -4 6 -25 33 -45 61 -21 28 -54 64 -73 80 -19 16 -46 40 -59 54
-13 14 -28 24 -34 22 -6 -2 -17 5 -24 14 -8 11 -13 13 -13 5 0 -9 -6 -8 -22 3
-12 9 -29 16 -38 16 -34 0 -210 108 -233 144 -8 12 -12 35 -10 52 4 26 11 32
46 42 27 7 64 32 102 67 77 71 155 123 229 153 48 19 94 27 242 38 265 20 394
45 408 79 9 26 -12 26 -111 5 -53 -12 -181 -27 -283 -35 -247 -19 -321 -41
-406 -119 -21 -19 -42 -32 -48 -29 -5 3 -6 1 -2 -5 3 -6 -3 -13 -14 -17 -11
-3 -20 -11 -20 -16 0 -5 -6 -9 -14 -9 -7 0 -20 -8 -27 -17 -12 -15 -12 -16 1
-8 9 5 12 5 7 -1 -5 -5 -12 -9 -15 -10 -4 0 -19 -6 -34 -14 -23 -11 -33 -11
-55 0 -23 11 -25 14 -10 18 15 3 17 12 15 45 -3 36 -6 42 -28 45 -72 7 -93 14
-79 23 8 5 30 9 50 9 22 0 39 6 42 14 6 15 -11 36 -28 36 -6 0 -12 16 -13 37
-2 28 4 45 28 74 16 21 30 45 30 53 0 19 29 24 210 31 415 17 560 52 674 161
74 72 114 165 122 284 6 84 10 98 33 123 22 24 26 38 26 85 0 47 -5 63 -29 95
-23 30 -26 40 -16 52 9 11 9 19 -4 36 -14 20 -13 24 10 54 36 47 33 108 -6
145 -16 15 -30 33 -30 39 0 21 27 11 53 -19 34 -37 52 -38 75 -2 15 25 22 27
69 24 43 -3 52 0 57 16 5 14 13 17 36 14 24 -3 31 0 39 19 9 24 9 24 177 24
l169 0 3 -28 c2 -16 10 -31 17 -33 16 -7 8 -33 -14 -51 -9 -7 -11 -13 -6 -13
27 -3 -36 -19 -76 -19 -26 -1 -62 -4 -80 -8 l-34 -8 45 -6 45 -6 -56 -1 c-110
-3 -150 -13 -162 -39 -8 -18 -8 -29 0 -42 20 -33 6 -298 -17 -326 -6 -7 -7
-15 -3 -18 3 -4 -1 -8 -10 -8 -30 -2 -35 -4 -43 -11 -4 -5 19 -8 51 -8 73 0
65 -11 -11 -16 -88 -5 -116 -13 -110 -32 3 -10 10 -36 15 -58 6 -23 22 -58 36
-78 14 -21 20 -34 13 -30 -7 5 -5 -4 4 -18 10 -15 15 -33 13 -41 -3 -7 3 -22
15 -32 11 -10 20 -23 20 -29 0 -6 -7 -3 -14 7 -8 11 -17 14 -20 8 -7 -11 28
-34 37 -25 3 3 15 0 27 -6 18 -10 21 -10 15 2 -6 10 -5 11 6 1 14 -14 568 -17
863 -5 l158 7 34 40 c18 22 29 42 23 43 -5 2 1 14 13 25 42 39 77 100 47 81
-7 -4 -9 -2 -5 7 3 8 9 22 12 32 4 9 10 17 14 17 5 0 4 15 -1 32 -11 41 -11
57 0 40 6 -11 9 -9 14 7 7 27 -7 30 -109 30 -47 0 -89 2 -92 5 -3 3 18 6 46 6
75 0 86 7 57 34 -14 13 -23 25 -20 28 3 2 0 19 -5 37 -5 18 -12 96 -16 173 -5
113 -4 139 6 133 8 -5 11 -4 7 2 -13 20 -97 33 -224 34 -120 2 -124 2 -55 9
101 11 102 20 2 20 -72 0 -81 2 -70 15 10 12 9 16 -4 21 -21 8 -19 90 2 116
24 29 28 176 7 240 -10 29 -19 58 -21 64 -3 14 -69 23 -87 12 -6 -4 -30 -7
-52 -6 -40 1 -40 1 -5 5 19 2 47 9 63 15 22 8 25 13 16 24 -6 8 -20 14 -30 14
-10 0 -25 13 -34 30 -9 17 -20 30 -26 30 -8 0 -8 -4 0 -14z m-1279 -174 c-6
-2 -10 -17 -10 -33 0 -18 -4 -28 -10 -24 -6 4 -9 14 -8 23 2 9 -3 16 -9 15 -7
-2 -13 1 -13 5 0 4 6 20 13 35 l12 27 17 -23 c9 -12 13 -23 8 -25z m-2931 11
c0 -16 -3 -21 -6 -13 -3 8 -12 21 -21 28 -14 10 -13 12 6 12 18 0 22 -6 21
-27z m4128 -3 c24 -26 23 -46 -3 -87 -22 -34 -84 -28 -84 7 0 11 -4 21 -9 24
-7 5 -7 56 1 59 2 1 12 7 23 13 29 16 47 12 72 -16z m-917 4 c0 -17 -22 -14
-28 4 -2 7 3 12 12 12 9 0 16 -7 16 -16z m50 6 c0 -5 -4 -10 -9 -10 -6 0 -12
-15 -14 -32 -3 -29 -4 -27 -5 10 -2 31 2 42 13 42 8 0 15 -4 15 -10z m1014
-15 c31 -33 30 -84 -2 -96 -12 -5 -28 -6 -36 -3 -28 11 -38 83 -15 110 16 20
27 18 53 -11z m-1274 -42 c0 -32 -4 -53 -8 -46 -7 11 -4 103 4 103 2 0 4 -26
4 -57z m-2100 7 c0 -13 -7 -20 -20 -20 -18 0 -19 3 -10 20 6 11 15 20 20 20 6
0 10 -9 10 -20z m1873 -23 c10 -10 17 -21 14 -23 -5 -5 -67 51 -67 61 0 8 22
-8 53 -38z m604 -24 c-2 -16 -4 -5 -4 22 0 28 2 40 4 28 2 -13 2 -35 0 -50z
m-2437 42 c0 -8 -7 -15 -15 -15 -8 0 -15 7 -15 15 0 8 7 15 15 15 8 0 15 -7
15 -15z m2020 5 c0 -5 -2 -10 -4 -10 -3 0 -8 5 -11 10 -3 6 -1 10 4 10 6 0 11
-4 11 -10z m455 -36 c6 -41 2 -64 -9 -53 -10 10 -18 99 -8 99 5 0 13 -21 17
-46z m137 -4 c2 -22 0 -40 -4 -40 -5 0 -8 18 -8 40 0 22 2 40 4 40 2 0 6 -18
8 -40z m-1337 20 c-3 -5 -12 -10 -18 -10 -7 0 -6 4 3 10 19 12 23 12 15 0z
m1415 -31 c0 -16 -4 -29 -10 -29 -5 0 -10 16 -10 36 0 21 4 33 10 29 6 -3 10
-19 10 -36z m-680 2 c0 -9 5 -22 12 -29 6 -6 9 -15 5 -19 -12 -11 -125 -14
-132 -3 -4 6 15 10 51 10 l56 0 -7 36 c-4 24 -3 34 4 29 6 -3 11 -14 11 -24z
m130 0 c0 -9 -7 -26 -15 -37 -13 -18 -14 -17 -15 17 0 20 3 39 6 42 10 10 24
-2 24 -22z m237 -8 c-3 -10 -5 -4 -5 12 0 17 2 24 5 18 2 -7 2 -21 0 -30z
m-3370 -6 c3 -4 -18 -7 -48 -6 -37 1 -46 3 -30 8 29 8 68 7 78 -2z m126 6 c-7
-2 -19 -2 -25 0 -7 3 -2 5 12 5 14 0 19 -2 13 -5z m2255 -5 c-6 -18 -25 -20
-31 -3 -5 10 0 15 14 15 12 0 19 -5 17 -12z m-1563 -20 c7 -31 -1 -104 -11
-101 -13 4 -18 123 -5 123 6 0 13 -10 16 -22z m-143 -60 c-9 -32 -10 -31 -10
22 -1 46 1 52 10 33 8 -16 8 -32 0 -55z m2375 50 c-3 -8 -6 -5 -6 6 -1 11 2
17 5 13 3 -3 4 -12 1 -19z m-1903 -4 c11 -28 7 -36 -15 -29 -18 6 -20 4 -15
-17 7 -23 7 -22 -8 2 -13 22 -13 27 1 43 20 21 29 22 37 1z m-1150 -21 c-3
-29 -35 -78 -52 -78 -6 0 -13 -3 -17 -7 -13 -13 -45 17 -45 42 0 46 26 66 91
69 23 1 26 -3 23 -26z m775 -10 c-1 -34 -2 -35 -9 -13 -11 36 -11 50 0 50 6 0
10 -17 9 -37z m-169 -8 c0 -19 -4 -35 -10 -35 -11 0 -14 53 -3 63 11 12 13 8
13 -28z m3540 -3 c-8 -3 -21 -10 -29 -16 -11 -8 -13 -8 -8 1 4 6 3 14 -3 18
-5 3 -10 13 -10 21 0 12 5 12 33 -2 22 -12 27 -19 17 -22z m-3995 12 c15 -21
7 -77 -11 -70 -7 3 -14 0 -16 -6 -3 -7 -11 -6 -26 3 -22 14 -38 61 -27 79 10
16 67 12 80 -6z m505 -4 c0 -11 -4 -20 -10 -20 -5 0 -10 9 -10 20 0 11 5 20
10 20 6 0 10 -9 10 -20z m3178 6 c10 13 112 18 112 6 0 -10 -99 -23 -147 -19
-17 1 -19 4 -11 14 8 10 14 11 25 1 9 -7 17 -8 21 -2z m172 4 c-20 -13 -40
-13 -40 0 0 6 12 10 28 10 21 0 24 -2 12 -10z m-3443 -22 c-3 -8 -6 -5 -6 6
-1 11 2 17 5 13 3 -3 4 -12 1 -19z m1879 -4 c2 -12 -1 -13 -12 -3 -7 6 -11 16
-8 21 7 11 17 3 20 -18z m1161 -21 c-3 -10 -5 -2 -5 17 0 19 2 27 5 18 2 -10
2 -26 0 -35z m73 31 c0 -14 -3 -15 -17 -3 -10 7 -20 15 -22 16 -2 2 5 3 17 3
14 0 22 -6 22 -16z m-4210 -9 c17 -9 30 -20 30 -26 0 -8 -4 -8 -12 -2 -7 6
-25 13 -40 17 -16 3 -28 11 -28 16 0 14 16 12 50 -5z m4730 -5 c0 -19 -11 -26
-23 -14 -8 8 3 34 14 34 5 0 9 -9 9 -20z m-1700 -10 c0 -5 -4 -10 -9 -10 -6 0
-13 5 -16 10 -3 6 1 10 9 10 9 0 16 -4 16 -10z m560 -37 c-1 -32 -4 -43 -9
-33 -8 14 -4 80 5 80 2 0 4 -21 4 -47z m-3420 10 c0 -13 -3 -13 -15 -3 -8 7
-12 16 -9 21 8 13 24 1 24 -18z m168 1 c1 -10 -2 -25 -7 -33 -7 -11 -13 -10
-34 3 -17 11 -27 14 -32 7 -3 -6 -22 -11 -41 -11 -27 0 -34 4 -34 20 0 11 3
21 8 21 44 7 62 6 62 -3 0 -6 9 -4 23 5 28 19 51 15 55 -9z m3177 16 c3 -5 1
-10 -4 -10 -6 0 -11 5 -11 10 0 6 2 10 4 10 3 0 8 -4 11 -10z m-518 -15 c2 -6
-6 -11 -17 -12 -11 -1 -27 -9 -36 -17 -12 -12 -20 -13 -35 -6 -27 15 -24 26
14 38 38 12 69 11 74 -3z m-2871 -20 c16 -12 16 -14 3 -15 -9 0 -22 7 -29 15
-16 19 0 19 26 0z m1229 -15 c3 -5 1 -10 -4 -10 -6 0 -11 5 -11 10 0 6 2 10 4
10 3 0 8 -4 11 -10z m-245 -19 c0 -12 -5 -21 -11 -21 -5 0 -7 5 -3 11 5 8 -22
10 -99 6 -60 -4 -109 -2 -112 3 -3 5 25 10 62 12 37 2 89 4 116 6 42 3 47 1
47 -17z m110 -9 c0 -15 -2 -15 -10 -2 -13 20 -13 33 0 25 6 -3 10 -14 10 -23z
m90 18 c0 -5 -4 -10 -10 -10 -5 0 -10 5 -10 10 0 6 5 10 10 10 6 0 10 -4 10
-10z m-495 -21 c-7 -10 -35 -1 -35 11 0 5 9 6 20 3 11 -3 17 -9 15 -14z m50
11 c-3 -5 -12 -10 -18 -10 -7 0 -6 4 3 10 19 12 23 12 15 0z m3865 0 c0 -5
-18 -10 -41 -10 -24 0 -38 4 -34 10 3 6 22 10 41 10 19 0 34 -4 34 -10z m135
0 c-3 -5 -19 -10 -36 -10 -16 0 -29 5 -29 10 0 6 16 10 36 10 21 0 33 -4 29
-10z m-4391 -11 c14 -7 22 -17 19 -25 -3 -8 0 -14 6 -14 6 0 11 -4 11 -9 0 -5
-8 -8 -17 -7 -10 2 -21 -1 -25 -7 -5 -8 -38 52 -38 69 0 7 19 4 44 -7z m-144
-19 c-9 -6 -9 -9 1 -13 10 -4 9 -6 -3 -6 -20 -1 -21 0 -12 23 3 9 11 13 16 10
6 -4 6 -9 -2 -14z m205 0 c-3 -5 -11 -10 -16 -10 -6 0 -7 5 -4 10 3 6 11 10
16 10 6 0 7 -4 4 -10z m96 0 c5 0 4 -6 -3 -14 -9 -10 -17 -11 -25 -4 -18 15
-16 31 3 24 9 -3 20 -6 25 -6z m1113 -5 c-4 -8 -8 -15 -10 -15 -2 0 -4 7 -4
15 0 8 4 15 10 15 5 0 7 -7 4 -15z m2029 -21 c4 -4 -7 -22 -23 -41 -40 -45
-42 -107 -4 -153 25 -29 25 -32 10 -49 -14 -16 -15 -23 -5 -39 10 -16 8 -25
-14 -54 -21 -27 -27 -46 -27 -84 0 -50 29 -114 51 -114 9 0 10 -24 6 -86 -7
-100 -31 -150 -99 -209 -77 -65 -188 -87 -543 -105 -115 -6 -215 -13 -221 -14
-6 -2 -19 12 -29 31 -12 22 -35 42 -62 55 -24 11 -43 23 -43 27 0 11 -104 4
-108 -8 -2 -6 -10 -11 -17 -11 -14 0 -98 -75 -106 -95 -3 -7 -104 -8 -294 -4
-312 7 -367 15 -453 65 -75 44 -122 144 -122 259 0 25 4 45 8 45 15 0 32 49
32 92 0 43 -29 102 -55 112 -17 6 -20 37 -5 52 8 8 8 18 0 36 -10 20 -8 31 9
59 33 53 25 102 -23 142 -16 13 -17 16 -3 11 9 -3 17 -1 17 5 0 18 45 13 73
-9 13 -11 28 -35 31 -53 6 -32 8 -33 54 -33 39 1 47 -2 46 -16 -2 -16 8 -18
78 -18 67 0 79 2 74 15 -9 24 22 32 134 34 58 2 134 5 170 7 36 2 191 6 345 9
154 3 287 8 295 10 8 2 130 7 270 11 148 3 260 11 268 17 7 5 34 7 62 4 l50
-6 0 49 c0 28 5 50 10 50 6 0 10 -5 10 -11 0 -5 5 -7 11 -4 9 6 85 21 120 24
9 0 19 -2 22 -5z m952 -4 c-3 -5 -17 -10 -31 -10 -13 0 -24 5 -24 10 0 6 14
10 31 10 17 0 28 -4 24 -10z m123 3 c-10 -2 -26 -2 -35 0 -10 3 -2 5 17 5 19
0 27 -2 18 -5z m-4253 -12 c3 -5 1 -12 -5 -16 -5 -3 -10 1 -10 9 0 18 6 21 15
7z m-195 -40 c13 -12 13 -13 0 -9 -17 6 -19 -15 -5 -65 11 -42 -14 -73 -72
-85 l-48 -10 58 -1 c72 -1 68 -21 -4 -21 -57 0 -92 -16 -132 -59 -16 -17 -33
-31 -37 -31 -5 0 -11 -9 -15 -20 -3 -11 -22 -34 -41 -52 -39 -36 -68 -92 -79
-151 l-7 -37 -28 44 c-16 25 -58 68 -94 96 -36 29 -66 54 -66 57 0 2 14 1 31
-2 65 -15 194 -22 216 -12 12 5 28 23 37 40 13 27 13 36 0 65 -7 19 -27 51
-44 72 -16 21 -30 40 -30 43 0 3 17 3 38 0 83 -11 163 33 176 97 5 29 8 30 56
30 48 0 50 1 50 27 0 23 2 25 13 13 6 -8 19 -21 27 -29z m737 4 c5 -8 23 -15
42 -17 18 -1 36 -10 41 -18 7 -13 19 -15 65 -10 46 5 58 3 72 -12 22 -24 60
-23 68 2 8 25 44 45 56 33 6 -6 2 -20 -11 -35 -31 -40 -27 -108 7 -142 24 -24
26 -31 16 -56 -8 -23 -7 -31 5 -44 15 -15 15 -18 -1 -44 -55 -84 -56 -136 -5
-184 26 -24 31 -39 39 -105 27 -214 136 -342 331 -388 87 -20 353 -37 531 -33
109 2 147 0 147 -9 0 -6 18 -33 40 -58 30 -35 40 -55 40 -81 0 -27 -4 -34 -19
-34 -26 0 -34 -15 -21 -40 8 -16 8 -20 -4 -20 -19 0 -23 -7 -30 -51 -5 -31 -2
-38 15 -42 12 -3 18 -10 14 -16 -11 -18 -55 -12 -88 11 -17 12 -38 23 -45 24
-18 3 -53 35 -47 44 2 4 -8 18 -23 32 -36 34 -89 67 -78 50 7 -11 4 -12 -13
-3 -11 7 -21 14 -21 17 0 3 5 2 10 -1 6 -3 10 -3 10 0 0 10 -108 55 -183 75
-40 11 -132 27 -204 35 -73 9 -172 27 -220 40 -48 13 -89 22 -92 20 -2 -3 1
-5 7 -5 6 0 9 -7 6 -15 -9 -22 -24 -18 -24 5 0 11 -4 20 -10 20 -23 0 -9 -41
18 -51 65 -25 188 -51 334 -70 87 -11 184 -29 215 -40 83 -28 179 -88 258
-161 89 -82 113 -98 146 -98 23 0 27 -5 31 -37 3 -25 -1 -46 -11 -61 -16 -23
-167 -129 -192 -134 -7 -2 -21 -10 -31 -18 -10 -8 -20 -13 -22 -10 -2 3 -10
-1 -19 -9 -10 -7 -17 -10 -17 -6 0 5 -9 -2 -20 -15 -11 -13 -20 -20 -20 -15 0
4 -8 -3 -18 -14 -15 -19 -32 -27 -65 -30 -5 -1 -6 -5 -2 -10 3 -5 -3 -12 -14
-16 -11 -3 -22 -12 -25 -20 -3 -8 -14 -15 -24 -15 -21 0 -86 -65 -130 -131
-62 -93 -95 -258 -57 -289 14 -12 12 -15 -12 -31 -24 -16 -25 -19 -8 -19 18 0
17 -2 -4 -13 -19 -9 -88 -10 -315 -2 -288 10 -351 8 -351 -10 -1 -23 -22 -44
-50 -48 -16 -2 -8 -3 19 -1 44 3 47 2 30 -11 -11 -8 -42 -14 -75 -15 -68 0
-126 -19 -165 -54 -16 -14 -46 -40 -67 -58 -46 -37 -97 -123 -96 -158 l1 -25
8 25 c5 14 7 -115 6 -287 -2 -172 1 -313 5 -313 5 0 9 -7 9 -15 0 -8 -4 -15
-10 -15 -6 0 -9 -25 -9 -57 1 -50 3 -54 10 -28 8 28 8 27 3 -5 -3 -19 -6 -78
-7 -132 -1 -53 -5 -94 -9 -92 -3 2 -8 -4 -10 -13 -4 -18 -9 46 -12 144 0 29
-1 53 -2 53 0 0 -56 -29 -125 -64 -135 -69 -473 -186 -490 -169 -11 11 -12 51
-3 111 4 30 2 49 -10 67 -12 18 -13 30 -6 50 15 39 13 50 -16 84 l-26 31 21
26 c24 30 28 74 8 74 -21 0 -51 37 -37 45 6 4 16 18 21 32 14 38 -11 71 -68
86 l-47 12 50 11 c36 7 53 17 64 37 13 24 13 28 -2 43 -9 10 -39 19 -68 22
-51 5 -53 22 -2 22 27 0 62 33 62 60 0 27 -35 61 -55 54 -9 -4 -3 7 14 23 32
33 33 66 2 91 -13 10 -13 16 -3 32 6 11 12 29 12 40 0 28 -35 61 -56 53 -11
-4 -15 -2 -11 4 8 13 -14 23 -51 23 -21 0 -24 2 -12 10 8 5 29 10 45 10 66 0
97 58 56 99 -11 11 -50 29 -86 40 -37 12 -71 23 -76 27 -5 3 7 21 27 39 34 32
36 37 30 77 -4 24 -8 63 -9 88 -2 48 -13 74 -27 65 -5 -3 -3 10 5 29 16 38 8
80 -17 89 -10 4 -11 7 0 18 16 18 15 60 -3 86 -11 16 -13 28 -5 48 12 30 4 69
-16 86 -12 9 -11 14 1 32 23 33 19 83 -7 102 -19 13 -21 18 -10 33 30 42 35
62 24 86 -10 22 -14 24 -44 15 -18 -5 -34 -9 -36 -9 -2 0 13 20 34 45 42 52
47 90 14 115 l-22 16 26 31 c31 36 33 64 7 87 -14 13 -24 14 -43 7 -23 -9 -25
-7 -25 15 0 13 5 24 12 24 7 0 24 10 39 21 22 17 27 28 24 58 -3 35 -4 36 -48
39 -32 3 -40 6 -30 13 10 7 -18 9 -85 7 -55 -1 -110 2 -122 6 -68 22 25 50
170 50 96 1 110 3 123 20 17 24 18 60 2 74 -7 6 -47 15 -89 21 -82 11 -189 46
-189 62 0 5 49 9 111 9 63 0 108 4 105 9 -4 5 11 7 34 4 23 -3 46 -1 53 6 10
8 19 6 35 -10 26 -24 26 -23 6 -54 -8 -13 -14 -38 -12 -56 5 -49 44 -67 154
-74 58 -3 80 -2 64 4 -21 7 -16 9 27 10 52 1 52 1 43 27 -14 35 -13 36 11 24
17 -10 24 -8 40 11 10 12 22 19 26 15 4 -4 1 -11 -7 -16 -8 -5 -11 -12 -8 -16
4 -3 21 5 38 20 29 24 43 30 62 28 13 -2 33 32 33 56 0 14 6 27 13 30 8 2 12
-2 10 -11 -2 -9 6 -23 17 -32 20 -16 20 -16 0 -11 -16 5 -21 1 -23 -19 -1 -16
3 -25 13 -25 9 0 12 6 9 15 -4 8 -1 15 5 15 6 0 11 -5 11 -10 0 -6 10 -15 23
-20 20 -9 20 -10 2 -9 -35 2 -45 -1 -45 -12 0 -7 10 -9 25 -7 14 3 28 1 31 -3
3 -5 -6 -9 -19 -9 -14 0 -39 -3 -56 -6 -26 -5 -32 -3 -41 17 -10 23 -10 23 -6
2 4 -22 1 -23 -62 -23 -78 0 -77 -8 3 -16 32 -4 70 -13 84 -21 25 -14 24 -14
-24 -12 -84 3 -199 -1 -193 -6 3 -3 46 -6 97 -6 50 0 91 -4 91 -9 0 -5 -10
-10 -22 -12 -13 -2 5 -8 39 -12 56 -7 61 -10 56 -29 -2 -12 -7 -32 -10 -44 -4
-17 -1 -23 11 -23 9 0 16 -5 16 -11 0 -5 -4 -7 -10 -4 -13 8 -13 -31 0 -54 5
-10 14 -69 20 -132 12 -130 36 -260 49 -269 5 -3 12 -22 15 -43 7 -42 58 -142
88 -170 10 -10 16 -22 14 -26 -3 -5 12 -22 34 -40 22 -17 38 -37 36 -44 -1 -6
-1 -8 2 -4 2 4 10 2 18 -4 11 -9 12 -14 4 -19 -8 -5 -6 -9 5 -13 10 -5 14 -3
9 4 -4 7 -1 10 7 7 8 -3 13 -10 12 -16 -2 -6 6 -14 17 -17 11 -4 18 -10 16
-14 -6 -8 132 -81 153 -81 7 0 36 -11 64 -24 29 -14 80 -30 115 -37 34 -6 65
-16 68 -20 3 -5 19 -9 35 -9 17 0 50 -5 75 -11 34 -9 48 -19 61 -43 26 -52 33
-57 56 -45 18 10 19 12 4 21 -19 10 -41 50 -51 91 l-7 28 23 -20 c16 -16 24
-18 30 -9 6 10 8 10 8 -1 0 -7 6 -11 15 -7 10 3 15 -1 15 -12 1 -16 1 -16 10
-1 20 34 33 224 26 384 -9 240 -45 440 -92 515 -8 14 -13 17 -10 7 6 -19 -29
-61 -44 -52 -4 3 -11 -1 -14 -7 -3 -7 -4 11 -2 40 2 28 3 52 0 52 -10 0 -33
-62 -44 -120 -16 -81 -25 -93 -34 -41 l-6 41 -47 0 c-27 0 -65 -9 -90 -21 -53
-25 -140 -23 -168 4 -9 10 -21 14 -27 11 -7 -5 -8 -2 -4 5 6 8 2 11 -10 9 -11
-2 -19 3 -19 12 -1 8 -9 32 -18 52 -19 41 -23 103 -7 113 13 8 -10 55 -27 55
-12 0 -11 3 1 16 18 17 21 34 7 34 -5 0 -8 11 -7 25 1 20 9 28 36 35 19 6 42
11 50 12 8 0 -7 4 -35 8 l-50 7 43 1 c86 4 346 62 383 87 39 25 42 36 43 193
1 28 5 52 9 52 5 0 5 -5 1 -12 -4 -7 -3 -8 5 -4 6 4 9 11 6 16 -3 5 -1 11 5
15 5 3 10 11 10 17 0 6 -8 4 -18 -5 -27 -24 -42 -21 -42 10 0 21 -34 80 -59
103 -4 3 -19 32 -35 65 -16 33 -47 77 -70 98 -22 20 -36 37 -31 37 5 0 -12 20
-39 45 -27 24 -53 42 -57 39 -5 -3 -9 -1 -9 3 0 5 -13 17 -30 26 -16 10 -30
15 -30 11 0 -3 -7 -1 -15 6 -10 8 -33 10 -75 5 -67 -8 -76 -1 -27 20 30 14 31
14 6 15 -14 0 -34 7 -45 16 -10 8 -12 13 -4 9 12 -5 12 -3 -1 6 -13 10 -14 19
-5 50 9 37 12 38 60 44 169 18 303 18 313 0z m2656 -75 c6 -20 4 -19 -8 5 -8
17 -14 44 -13 60 0 29 0 29 7 -5 4 -19 11 -46 14 -60z m927 74 c0 -2 -15 -4
-32 -3 -27 0 -29 2 -13 8 18 8 45 4 45 -5z m120 6 c0 -5 -9 -10 -20 -10 -11 0
-20 5 -20 10 0 6 9 10 20 10 11 0 20 -4 20 -10z m30 0 c0 -5 -4 -10 -10 -10
-5 0 -10 5 -10 10 0 6 5 10 10 10 6 0 10 -4 10 -10z m-4196 -49 c7 -10 -54
-21 -69 -13 -5 3 1 9 15 13 36 10 48 10 54 0z m-794 -26 c13 -14 21 -25 17
-25 -16 0 -56 24 -61 36 -9 23 19 16 44 -11z m690 15 c10 -6 -2 -9 -38 -8 -29
0 -52 4 -52 9 0 12 71 11 90 -1z m-487 -17 c-7 -2 -21 -2 -30 0 -10 3 -4 5 12
5 17 0 24 -2 18 -5z m4592 -2 l30 -6 -30 -11 c-87 -32 -99 -34 -107 -21 -6 9
-10 9 -17 -2 -8 -12 -14 -12 -43 -1 -18 7 -37 17 -42 21 -23 21 136 36 209 20z
m379 0 c14 -5 16 -10 8 -15 -25 -15 -72 -24 -77 -15 -4 5 -13 5 -23 0 -23 -12
-122 17 -101 30 17 10 166 11 193 0z m-3467 -53 c-2 -13 -4 -5 -4 17 -1 22 1
32 4 23 2 -10 2 -28 0 -40z m-1069 10 c-2 -7 3 -12 10 -10 8 1 12 -3 10 -10
-3 -7 -20 -14 -39 -16 -32 -4 -33 -3 -16 16 9 10 14 22 10 25 -3 4 1 7 10 7
10 0 16 -6 15 -12z m-528 -23 c13 -14 19 -25 13 -25 -5 0 -20 11 -33 25 -13
14 -19 25 -13 25 5 0 20 -11 33 -25z m683 -2 c-7 -2 -19 -2 -25 0 -7 3 -2 5
12 5 14 0 19 -2 13 -5z m3147 -39 c0 -8 -4 -12 -10 -9 -5 3 -10 10 -10 16 0 5
5 9 10 9 6 0 10 -7 10 -16z m1147 -76 c7 -99 13 -99 13 0 0 84 16 117 17 37 2
-64 2 -65 16 -59 17 6 43 -23 49 -56 3 -14 9 -32 12 -41 4 -10 1 -23 -8 -32
-9 -9 -16 -20 -16 -26 0 -7 -29 -11 -77 -11 -72 1 -79 3 -96 26 -12 16 -17 34
-13 48 8 31 72 127 80 119 3 -4 6 -1 6 6 0 6 -6 14 -14 17 -16 6 -10 34 8 46
16 10 17 6 23 -74z m-417 52 c0 -11 -4 -20 -9 -20 -5 0 -11 9 -14 20 -3 13 0
20 9 20 8 0 14 -9 14 -20z m35 11 c-3 -5 3 -11 12 -13 16 -3 15 -5 -4 -16 -21
-12 -23 -11 -23 13 0 14 5 25 11 25 5 0 8 -4 4 -9z m-765 -21 c0 -5 -9 -10
-20 -10 -11 0 -20 5 -20 10 0 6 9 10 20 10 11 0 20 -4 20 -10z m-2270 -20 c0
-5 -4 -10 -10 -10 -5 0 -10 5 -10 10 0 6 5 10 10 10 6 0 10 -4 10 -10z m3010
-44 c1 -17 3 -16 15 9 7 17 14 23 14 15 1 -8 17 -30 37 -48 29 -27 33 -36 24
-47 -9 -11 -9 -15 -1 -15 6 0 11 5 11 10 0 6 5 10 11 10 6 0 9 -6 6 -14 -3 -7
0 -19 6 -25 8 -8 6 -15 -5 -28 -8 -10 -13 -24 -11 -30 3 -9 -9 -13 -45 -13
-27 0 -71 -3 -97 -7 -42 -5 -48 -4 -42 10 3 9 2 19 -3 22 -17 11 -11 62 7 69
13 5 14 9 5 15 -10 6 -10 11 3 21 8 7 15 18 15 26 0 7 5 25 10 39 9 23 13 25
25 15 8 -7 15 -22 15 -34z m-3007 7 c-7 -2 -19 -2 -25 0 -7 3 -2 5 12 5 14 0
19 -2 13 -5z m-1598 -23 c-3 -5 -15 -10 -25 -10 -10 0 -22 5 -25 10 -4 6 7 10
25 10 18 0 29 -4 25 -10z m448 -7 c-13 -2 -33 -2 -45 0 -13 2 -3 4 22 4 25 0
35 -2 23 -4z m3407 -8 c7 -9 10 -25 6 -41 -5 -19 -12 -25 -29 -22 -25 3 -35
41 -17 64 16 18 24 18 40 -1z m-4073 -17 c13 -12 23 -25 23 -30 0 -13 -57 19
-63 37 -9 22 13 18 40 -7z m1870 16 c-3 -3 -12 -4 -19 -1 -8 3 -5 6 6 6 11 1
17 -2 13 -5z m-1567 -36 c0 -3 -9 -4 -19 -1 -16 4 -17 8 -8 18 11 12 26 3 27
-17z m3866 10 c4 -6 -1 -17 -12 -25 -16 -12 -19 -11 -26 4 -3 10 -7 21 -7 26
-1 12 37 8 45 -5z m-3485 -40 c0 -10 2 -10 6 0 5 13 23 7 23 -9 0 -10 -40 -12
-65 -3 -13 5 -14 8 -3 15 19 13 38 11 39 -3z m1139 -8 c15 -29 -4 -60 -36 -60
-24 0 -25 3 -19 27 13 53 37 67 55 33z m-1720 -5 c20 -24 6 -28 -15 -5 -10 11
-13 20 -8 20 6 0 16 -7 23 -15z m1804 -7 c22 -32 20 -38 -14 -38 -25 0 -30 4
-30 23 0 42 21 49 44 15z m-1273 -21 c-7 -9 6 -12 50 -11 32 0 61 3 64 6 8 8
55 -3 55 -13 0 -5 -6 -9 -12 -9 -9 0 -13 -15 -13 -43 0 -23 -4 -45 -10 -49 -6
-5 -4 -8 4 -8 24 0 -21 -29 -45 -30 -37 0 -39 -49 -2 -50 10 0 39 -62 32 -69
-8 -9 -261 -7 -270 2 -10 10 1 19 28 22 13 1 26 3 30 4 4 0 4 9 1 18 -5 13 -2
15 11 10 10 -4 19 -1 22 8 4 8 13 15 21 15 8 0 11 5 8 10 -4 6 -10 8 -15 5 -4
-3 -10 2 -14 10 -3 8 -12 15 -19 15 -22 0 -37 41 -34 92 1 32 7 48 15 48 8 0
10 5 6 12 -5 8 -2 9 9 5 10 -3 17 -2 17 2 0 5 8 7 19 4 10 -3 22 0 26 6 3 6
11 9 16 5 6 -4 7 -10 0 -17z m3454 13 c3 -5 2 -10 -4 -10 -5 0 -13 5 -16 10
-3 6 -2 10 4 10 5 0 13 -4 16 -10z m65 -4 c0 -7 -6 -19 -14 -25 -11 -9 -13 -7
-11 11 3 28 3 28 15 28 6 0 10 -6 10 -14z m-3007 -41 c9 -20 17 -38 17 -40 0
-3 -16 -12 -36 -20 -42 -17 -91 -19 -129 -5 -21 8 -25 14 -19 33 4 12 12 25
18 29 8 5 7 8 -2 8 -7 0 -10 5 -6 11 3 6 15 9 25 6 10 -3 22 -1 25 4 3 5 24 9
48 9 39 0 44 -3 59 -35z m699 -28 c-3 -12 -7 -16 -10 -9 -2 6 -8 12 -14 12 -6
0 -7 -7 -4 -16 3 -8 2 -12 -4 -9 -6 3 -10 12 -10 20 0 7 -6 15 -12 18 -7 2 3
5 23 5 32 0 36 -2 31 -21z m54 8 c-8 -8 -23 -15 -33 -15 -17 1 -17 2 1 15 27
21 53 21 32 0z m3324 5 c0 -5 -15 -9 -32 -9 l-33 1 30 8 c17 4 31 8 33 9 1 0
2 -3 2 -9z m-5330 -19 c0 -5 3 -17 7 -27 9 -23 -13 -10 -27 17 -9 15 -7 19 5
19 8 0 15 -4 15 -9z m4913 2 c-7 -2 -21 -2 -30 0 -10 3 -4 5 12 5 17 0 24 -2
18 -5z m-4703 -44 c0 -5 -4 -9 -10 -9 -5 0 -10 7 -10 16 0 8 5 12 10 9 6 -3
10 -10 10 -16z m4040 11 c0 -5 -4 -10 -10 -10 -5 0 -10 5 -10 10 0 6 5 10 10
10 6 0 10 -4 10 -10z m660 0 c0 -5 -2 -10 -4 -10 -3 0 -8 5 -11 10 -3 6 -1 10
4 10 6 0 11 -4 11 -10z m98 3 c-10 -2 -28 -2 -40 0 -13 2 -5 4 17 4 22 1 32
-1 23 -4z m195 0 c-7 -2 -21 -2 -30 0 -10 3 -4 5 12 5 17 0 24 -2 18 -5z
m-333 -18 c0 -9 6 -12 15 -9 23 9 92 -6 75 -16 -9 -6 -7 -10 9 -15 30 -9 16
-25 -21 -25 -30 0 -31 -1 -14 -19 17 -19 17 -19 -6 -14 -21 5 -22 4 -5 -8 16
-13 14 -14 -19 -13 -20 1 -41 7 -47 13 -15 15 -47 14 -48 -1 0 -10 -2 -10 -6
0 -2 6 -13 12 -24 12 -23 0 -43 41 -25 52 7 5 4 8 -7 8 -17 0 -17 1 -3 16 9 8
26 15 39 14 12 -1 36 -1 52 1 20 1 12 4 -25 9 l-55 7 58 1 c44 2 57 -1 57 -13z
m-633 -37 c-3 -8 -6 -5 -6 6 -1 11 2 17 5 13 3 -3 4 -12 1 -19z m-4227 -8 c14
-10 22 -21 19 -25 -10 -9 -56 12 -62 29 -9 22 12 20 43 -4z m287 -24 c-1 -6 8
-10 20 -8 20 3 21 1 13 -29 -5 -17 -7 -35 -5 -39 3 -4 -2 -14 -11 -21 -14 -12
-14 -14 3 -20 16 -7 15 -8 -4 -8 -13 -1 -23 5 -23 13 0 8 -28 28 -62 46 -150
77 -192 116 -98 90 66 -18 152 -28 141 -17 -6 6 -11 18 -11 26 0 11 4 11 20
-4 10 -9 18 -22 17 -29z m1708 -3 c15 -90 55 -180 105 -237 27 -30 28 -34 9
-29 -30 8 -96 96 -110 146 -16 58 -27 157 -18 157 5 0 11 -17 14 -37z m3776 4
c-10 -9 -11 -8 -5 6 3 10 9 15 12 12 3 -3 0 -11 -7 -18z m-1611 -92 c-15 -54
-103 -148 -162 -174 -47 -20 -80 -28 -142 -35 -34 -4 -44 4 -13 11 119 26 160
47 225 118 34 37 59 77 74 118 20 55 23 59 26 33 2 -16 -2 -48 -8 -71z m-4034
44 c4 -8 1 -8 -14 0 -12 6 -24 16 -28 22 -4 8 -1 8 14 0 12 -6 24 -16 28 -22z
m4091 -11 c-3 -7 -5 -2 -5 12 0 14 2 19 5 13 2 -7 2 -19 0 -25z m-2988 6 c17
11 64 14 84 7 22 -9 22 -9 -3 -15 -47 -11 -188 -22 -206 -16 -12 5 -5 10 27
18 64 16 84 19 87 10 2 -5 7 -6 11 -4z m-324 -13 c3 -6 -4 -15 -15 -21 -17 -9
-20 -8 -20 10 0 20 24 28 35 11z m3299 -75 c-9 -14 -13 -26 -9 -26 3 0 0 -6
-7 -14 -7 -8 -24 -31 -38 -50 -14 -20 -31 -36 -37 -36 -7 0 -13 -5 -13 -11 0
-5 -4 -7 -10 -4 -5 3 -10 2 -10 -4 0 -5 -11 -8 -25 -6 -15 1 -25 -3 -25 -11 0
-15 -52 -32 -120 -40 l-45 -5 35 14 c19 8 56 22 81 31 78 28 138 75 187 146
26 37 48 61 50 54 2 -7 -4 -24 -14 -38z m-2889 14 c-58 -12 -211 -24 -204 -16
3 4 39 9 80 12 41 4 76 8 78 10 2 2 23 3 45 3 l41 -1 -40 -8z m-645 -20 c0 -5
-10 -10 -22 -10 -26 0 -64 -20 -39 -20 25 0 61 -42 60 -69 -1 -24 -2 -24 -11
6 -7 21 -22 37 -45 48 -18 9 -31 20 -28 26 4 5 0 10 -7 11 -7 0 10 4 37 8 28
4 51 8 53 8 1 1 2 -2 2 -8z m-754 -32 l29 -31 -32 22 c-18 12 -33 27 -33 32 0
14 4 11 36 -23z m937 25 c-18 -2 -48 -2 -65 0 -18 2 -4 4 32 4 36 0 50 -2 33
-4z m1132 -63 c3 -5 1 -10 -4 -10 -6 0 -11 5 -11 10 0 6 2 10 4 10 3 0 8 -4
11 -10z m-2045 -30 l25 -21 -30 7 c-16 4 -37 13 -45 20 -24 23 20 17 50 -6z
m620 10 c0 -5 -2 -10 -4 -10 -3 0 -8 5 -11 10 -3 6 -1 10 4 10 6 0 11 -4 11
-10z m1456 -21 c19 -22 19 -22 -3 -8 -13 8 -23 17 -23 21 0 12 6 9 26 -13z
m-1452 -15 c3 -8 2 -12 -4 -9 -6 3 -10 10 -10 16 0 14 7 11 14 -7z m51 6 c3
-5 2 -10 -4 -10 -5 0 -13 5 -16 10 -3 6 -2 10 4 10 5 0 13 -4 16 -10z m-525
-20 c12 -8 12 -10 -5 -10 -11 0 -27 5 -35 10 -12 8 -12 10 5 10 11 0 27 -5 35
-10z m2075 -69 c-6 -5 -115 51 -115 59 0 4 27 -7 59 -24 33 -17 58 -33 56 -35z
m877 52 c10 -9 18 -20 18 -25 0 -12 -38 -47 -44 -40 -3 3 -6 0 -6 -7 0 -9 -5
-9 -20 -1 -24 13 -26 52 -4 74 20 20 33 20 56 -1z m131 -17 c15 -12 16 -18 7
-35 -14 -27 -51 -27 -68 0 -25 39 21 65 61 35z m-1906 -12 c-3 -3 -12 -4 -19
-1 -8 3 -5 6 6 6 11 1 17 -2 13 -5z m2070 0 c-3 -3 -12 -4 -19 -1 -8 3 -5 6 6
6 11 1 17 -2 13 -5z m508 -13 c-10 -10 -49 -15 -75 -11 -8 2 3 6 25 10 61 11
60 11 50 1z m-2975 -16 c0 -18 -30 -20 -31 -2 0 10 -2 10 -6 0 -6 -17 -21 -16
-39 2 -14 13 -10 15 30 15 34 0 46 -4 46 -15z m113 8 c-7 -2 -19 -2 -25 0 -7
3 -2 5 12 5 14 0 19 -2 13 -5z m127 -3 c0 -5 -4 -10 -10 -10 -5 0 -10 5 -10
10 0 6 5 10 10 10 6 0 10 -4 10 -10z m1760 -6 c0 -8 -5 -12 -10 -9 -6 4 -8 11
-5 16 9 14 15 11 15 -7z m-93 0 c-7 -7 -148 -6 -155 1 -3 3 32 5 78 5 46 0 81
-3 77 -6z m878 -3 c-12 -11 -155 -20 -155 -9 0 4 35 9 78 11 42 1 79 4 82 5 2
1 0 -2 -5 -7z m58 2 c-7 -2 -19 -2 -25 0 -7 3 -2 5 12 5 14 0 19 -2 13 -5z
m-1263 -33 c23 -6 6 -7 -50 -4 -47 2 -98 8 -115 13 -37 11 112 3 165 -9z
m1018 13 c-16 -2 -40 -2 -55 0 -16 2 -3 4 27 4 30 0 43 -2 28 -4z m-2671 -19
c-3 -3 -12 -4 -19 -1 -8 3 -5 6 6 6 11 1 17 -2 13 -5z m1720 0 c-3 -3 -12 -4
-19 -1 -8 3 -5 6 6 6 11 1 17 -2 13 -5z m45 -6 c-9 -9 -15 -9 -24 0 -9 9 -7
12 12 12 19 0 21 -3 12 -12z m55 6 c-3 -3 -12 -4 -19 -1 -8 3 -5 6 6 6 11 1
17 -2 13 -5z m106 -1 c-18 -2 -48 -2 -65 0 -18 2 -4 4 32 4 36 0 50 -2 33 -4z
m277 -22 c0 -11 -5 -23 -12 -27 -8 -5 -9 -2 -5 9 3 10 2 17 -3 17 -6 0 -10 -5
-10 -12 0 -6 -2 -9 -5 -6 -3 3 -3 13 1 22 9 22 34 20 34 -3z m139 4 c15 5 21
2 21 -9 0 -9 -5 -16 -11 -16 -5 0 -7 -4 -4 -10 3 -5 -1 -10 -9 -10 -9 0 -16 7
-16 15 0 19 -30 19 -58 -1 -17 -12 -22 -12 -22 -2 0 10 -2 10 -9 0 -7 -11 -10
-10 -15 3 -11 30 -7 34 34 31 22 -2 43 1 47 6 3 6 8 5 13 -2 4 -7 16 -9 29 -5z
m-3194 -46 c13 -13 -32 -11 -56 1 -31 17 -22 30 14 18 17 -6 36 -15 42 -19z
m1007 -2 c-34 -6 -56 -7 -63 0 -6 6 13 10 53 10 l63 0 -53 -10z m-852 -27 c11
-7 7 -10 -17 -10 -17 0 -35 5 -38 10 -8 13 35 13 55 0z m950 -26 c-105 -17
-160 -17 -160 0 0 10 15 12 68 9 37 -3 85 0 107 5 22 5 45 6 50 3 6 -3 -24
-11 -65 -17z m992 6 c46 -10 137 -26 203 -35 141 -18 187 -26 182 -31 -12 -12
-477 68 -477 82 0 6 1 6 92 -16z m2188 -30 c-8 -5 -17 -7 -19 -4 -3 3 1 9 9
14 8 5 17 7 19 4 3 -3 -1 -9 -9 -14z m-4185 -30 c18 -7 17 -8 -10 -14 -16 -3
-48 -10 -70 -15 -39 -9 -55 -7 -55 8 0 24 92 39 135 21z m3023 -27 c2 -8 -5
-13 -17 -13 -21 0 -35 13 -24 24 10 10 36 3 41 -11z m82 7 c0 -5 -12 -10 -26
-10 -14 0 -23 4 -19 10 3 6 15 10 26 10 10 0 19 -4 19 -10z m-620 -15 c33 -19
21 -19 -21 0 -19 8 -27 14 -19 14 8 0 26 -6 40 -14z m-2590 -41 c24 -14 23
-14 -15 -8 -47 8 -55 12 -55 25 0 12 32 4 70 -17z m3120 7 c0 -5 -13 -11 -30
-13 -30 -5 -41 6 -17 15 20 9 47 8 47 -2z m115 -1 c4 -6 -7 -10 -25 -10 -18 0
-29 4 -25 10 3 6 15 10 25 10 10 0 22 -4 25 -10z m-506 -43 c24 -16 73 -56
109 -89 65 -59 97 -72 51 -21 l-24 27 32 -25 c33 -25 41 -39 22 -39 -5 0 -7
-4 -4 -10 14 -23 -9 -6 -77 57 -40 36 -97 82 -125 101 -29 19 -53 37 -53 39 0
5 14 -3 69 -40z m-1743 18 c-4 -24 -16 -30 -16 -7 0 12 4 22 9 22 5 0 8 -7 7
-15z m1815 -42 c8 -9 -5 -2 -28 17 -24 18 -43 35 -43 37 0 7 56 -35 71 -54z
m-2649 36 c-15 -6 -30 -5 -40 1 -13 7 -8 9 23 9 35 0 37 -1 17 -10z m1008 -4
c6 17 10 13 29 -27 24 -54 26 -71 8 -87 -10 -8 -19 -6 -33 8 -15 14 -21 32
-21 72 -1 30 1 45 4 34 l6 -20 7 20z m-1160 -65 c0 -5 -7 -10 -16 -10 -8 0
-12 5 -9 10 3 6 10 10 16 10 5 0 9 -4 9 -10z m1757 -12 c-3 -8 -6 -5 -6 6 -1
11 2 17 5 13 3 -3 4 -12 1 -19z m-1520 6 c-3 -3 -12 -4 -19 -1 -8 3 -5 6 6 6
11 1 17 -2 13 -5z m878 -82 c58 -83 100 -112 198 -137 60 -15 144 -17 187 -4
12 3 16 -10 18 -69 3 -67 2 -73 -15 -64 -10 4 -56 9 -103 11 -65 1 -97 8 -137
26 -96 44 -243 214 -243 281 0 13 3 14 14 5 12 -10 13 -8 9 10 -11 41 20 15
72 -59z m-1136 44 c24 -7 40 -16 34 -19 -13 -8 -83 11 -83 23 0 12 -4 12 49
-4z m181 -26 c12 -8 9 -10 -12 -10 -16 0 -28 5 -28 10 0 13 20 13 40 0z m2960
-9 c0 -16 -26 -19 -98 -12 -7 0 -10 6 -7 11 8 12 105 13 105 1z m122 -5 c9 0
14 -4 12 -8 -7 -11 -61 -10 -68 1 -8 13 6 22 23 15 9 -4 24 -7 33 -8z m-1495
-18 c-3 -8 -6 -5 -6 6 -1 11 2 17 5 13 3 -3 4 -12 1 -19z m1648 12 c3 -6 -1
-7 -9 -4 -18 7 -21 14 -7 14 6 0 13 -4 16 -10z m-305 -29 c0 -8 -79 -3 -89 5
-2 2 17 4 42 4 26 0 47 -4 47 -9z m90 5 c0 -2 -16 -6 -35 -8 -19 -2 -35 0 -35
4 0 4 16 8 35 8 19 0 35 -2 35 -4z m47 -2 c-3 -3 -12 -4 -19 -1 -8 3 -5 6 6 6
11 1 17 -2 13 -5z m-3219 -33 c3 -8 -1 -12 -9 -9 -7 2 -15 10 -17 17 -3 8 1
12 9 9 7 -2 15 -10 17 -17z m3090 -18 c-10 -2 -26 -2 -35 0 -10 3 -2 5 17 5
19 0 27 -2 18 -5z m120 0 c-10 -2 -26 -2 -35 0 -10 3 -2 5 17 5 19 0 27 -2 18
-5z m-1494 -45 c8 -65 5 -148 -5 -148 -5 0 -10 15 -10 33 -6 134 -5 157 2 157
4 0 10 -19 13 -42z m-1700 11 c8 -8 2 -9 -24 -4 -53 11 -73 27 -26 21 22 -3
44 -10 50 -17z m1596 -16 c3 -3 5 -28 5 -57 -1 -52 -26 -108 -40 -87 -3 6 -10
9 -15 6 -5 -3 -11 -1 -15 5 -4 6 -11 8 -16 5 -5 -4 -9 23 -9 64 0 46 4 71 13
74 12 6 68 -2 77 -10z m-1463 -5 c-21 -7 -32 -7 -40 1 -8 8 0 11 29 10 39 -1
39 -1 11 -11z m1106 -148 c5 0 23 -7 40 -15 40 -18 143 -45 174 -45 13 0 23
-4 23 -9 0 -13 -28 -22 -35 -11 -4 6 -13 10 -22 10 -11 0 -14 -6 -9 -24 5 -22
3 -24 -24 -21 -16 2 -32 -1 -36 -6 -8 -13 -44 19 -44 39 0 9 -6 12 -16 8 -12
-4 -15 -2 -10 9 3 8 1 15 -4 15 -6 0 -10 -4 -10 -10 0 -5 -4 -10 -10 -10 -14
0 -12 28 3 33 6 2 9 8 4 12 -4 5 -12 4 -19 -3 -8 -8 -31 8 -90 66 -43 42 -78
80 -78 85 0 5 35 -21 77 -57 42 -36 81 -66 86 -66z m-173 80 c0 -5 -4 -10 -10
-10 -5 0 -10 5 -10 10 0 6 5 10 10 10 6 0 10 -4 10 -10z m50 -41 c0 -5 -7 -6
-15 -3 -8 4 -15 13 -15 21 0 13 3 13 15 3 8 -7 15 -16 15 -21z m2200 21 c0 -5
-7 -7 -15 -4 -8 4 -15 8 -15 10 0 2 7 4 15 4 8 0 15 -4 15 -10z m-3339 -32
c22 -6 39 -15 39 -20 0 -5 -10 -6 -22 -2 -44 13 -68 24 -68 29 0 7 8 6 51 -7z
m1179 -28 c0 -4 -7 -7 -15 -6 -23 3 -26 12 -5 13 11 1 20 -2 20 -7z m-1007 -7
c-7 -2 -21 -2 -30 0 -10 3 -4 5 12 5 17 0 24 -2 18 -5z m1454 -43 c-3 -12 1
-24 11 -29 14 -8 13 -10 -5 -8 -13 1 -23 5 -23 10 0 5 -10 5 -22 1 -19 -6 -18
-3 7 19 36 32 39 32 32 7z m191 -18 c7 -5 10 -16 6 -26 -4 -11 -1 -21 6 -26
11 -7 11 -11 1 -24 -19 -23 -31 -20 -31 9 0 14 -6 25 -12 25 -7 0 -5 5 5 11
14 8 16 14 6 25 -12 15 -2 19 19 6z m-1808 -60 c-21 -4 -60 14 -60 28 0 5 18
1 40 -8 29 -12 34 -18 20 -20z m178 -19 c-10 -2 -28 -2 -40 0 -13 2 -5 4 17 4
22 1 32 -1 23 -4z m-175 -93 c40 -15 52 -35 15 -25 -36 10 -68 28 -68 38 0 5
3 7 8 5 4 -2 24 -10 45 -18z m-63 -40 c0 -5 -2 -10 -4 -10 -3 0 -8 5 -11 10
-3 6 -1 10 4 10 6 0 11 -4 11 -10z m243 3 c-7 -2 -21 -2 -30 0 -10 3 -4 5 12
5 17 0 24 -2 18 -5z m2734 -28 c50 -18 53 -20 63 -67 13 -65 13 -82 -5 -125
-19 -44 -51 -77 -67 -67 -7 5 -8 3 -3 -6 6 -10 4 -12 -7 -7 -9 3 -21 0 -27 -6
-8 -8 -11 -7 -11 3 0 13 -2 13 -10 0 -8 -13 -11 -12 -24 5 -14 20 -15 20 -34
-3 l-20 -23 -7 22 c-5 14 -10 17 -14 10 -8 -13 -71 -4 -71 10 0 5 -4 9 -9 9
-5 0 -9 -14 -9 -30 1 -25 4 -29 20 -25 10 4 18 2 18 -3 0 -14 -63 -22 -77 -10
-9 7 -13 7 -13 -1 0 -6 -4 -11 -10 -11 -5 0 -10 10 -10 21 0 19 -2 20 -17 8
-10 -7 -7 0 7 16 14 17 26 32 27 34 2 2 8 -10 14 -27 6 -18 15 -29 21 -26 5 3
7 13 3 22 -3 9 -1 36 4 61 6 25 13 63 16 83 4 28 20 52 66 98 54 55 63 60 97
57 20 -2 60 -11 89 -22z m-1177 -61 c11 -36 20 -71 20 -78 -1 -16 -31 55 -34
79 -2 11 -6 30 -10 43 -4 12 -5 22 -2 22 3 0 14 -30 26 -66z m1735 12 c14 -15
25 -31 25 -37 0 -5 9 -18 21 -30 47 -47 33 -142 -23 -157 -28 -7 -34 -6 -42
12 -9 19 -10 18 -14 -11 -5 -46 -29 -56 -99 -44 -67 13 -80 21 -32 21 l34 0
-31 19 c-17 11 -34 30 -37 43 -3 12 -11 37 -18 54 -11 27 -10 37 8 75 34 72
64 90 141 85 31 -3 49 -11 67 -30z m-3464 -7 c23 -11 39 -23 36 -25 -7 -7 -73
22 -81 35 -10 16 -1 14 45 -10z m-51 -44 c11 -13 10 -14 -4 -9 -9 3 -16 10
-16 15 0 13 6 11 20 -6z m248 8 c-10 -2 -28 -2 -40 0 -13 2 -5 4 17 4 22 1 32
-1 23 -4z m-159 -84 c20 -10 30 -18 24 -19 -20 0 -93 31 -93 41 0 9 17 4 69
-22z m-79 -29 c0 -5 -2 -10 -4 -10 -3 0 -8 5 -11 10 -3 6 -1 10 4 10 6 0 11
-4 11 -10z m233 3 c-7 -2 -19 -2 -25 0 -7 3 -2 5 12 5 14 0 19 -2 13 -5z
m-158 -78 c22 -14 36 -25 32 -25 -15 0 -75 28 -81 39 -11 17 6 12 49 -14z
m2685 -25 c0 -5 -2 -10 -4 -10 -3 0 -8 5 -11 10 -3 6 -1 10 4 10 6 0 11 -4 11
-10z m128 -14 c2 -10 -2 -23 -9 -30 -9 -8 -11 -7 -6 7 4 9 2 17 -3 17 -6 0
-10 7 -10 16 0 21 24 12 28 -10z m-2873 4 c3 -5 1 -10 -4 -10 -6 0 -11 5 -11
10 0 6 2 10 4 10 3 0 8 -4 11 -10z m255 6 c0 -8 -51 -13 -56 -5 -3 5 9 9 25 9
17 0 31 -2 31 -4z m2551 -6 c6 0 8 -4 5 -9 -8 -12 -46 -2 -46 11 0 6 7 7 16 4
9 -3 20 -6 25 -6z m629 -54 c51 -25 90 -76 89 -115 0 -23 -2 -22 -19 14 -63
141 -243 155 -307 25 -12 -25 -22 -37 -23 -27 -1 41 50 106 100 126 35 15 106
4 160 -23z m-3400 -22 c18 -25 30 -47 28 -50 -7 -7 -55 50 -63 74 -10 34 1 27
35 -24z m2277 4 c-3 -8 -6 -5 -6 6 -1 11 2 17 5 13 3 -3 4 -12 1 -19z m767
-25 c57 -28 97 -79 95 -124 0 -18 -6 -10 -24 28 -19 43 -32 56 -74 77 -92 47
-184 27 -228 -50 -19 -32 -23 -35 -23 -17 0 32 48 81 95 98 59 21 98 18 159
-12z m-2754 -3 c13 -8 13 -10 -2 -10 -9 0 -20 5 -23 10 -8 13 5 13 25 0z
m3038 -17 c-10 -2 -26 -2 -35 0 -10 3 -2 5 17 5 19 0 27 -2 18 -5z m-953 -23
c92 -5 20 -7 -250 -7 -216 1 -348 4 -307 8 40 4 76 10 79 13 6 5 269 -2 478
-14z m1032 14 c-3 -3 -12 -4 -19 -1 -8 3 -5 6 6 6 11 1 17 -2 13 -5z m344 -24
c62 -29 85 -70 79 -140 -1 -17 -6 -8 -14 27 -15 63 -27 78 -80 105 -32 16 -52
19 -100 15 -65 -6 -102 -27 -126 -73 -20 -39 -19 -38 -24 -33 -3 2 4 23 14 46
35 79 146 102 251 53z m-1048 13 c-13 -2 -35 -2 -50 0 -16 2 -5 4 22 4 28 0
40 -2 28 -4z m709 -10 c34 -5 38 -9 44 -41 5 -24 2 -45 -7 -61 -16 -28 -74
-71 -95 -71 -21 0 -17 20 4 21 15 0 15 1 -2 8 -14 5 -16 10 -8 15 7 4 17 4 22
1 6 -3 10 -1 10 4 0 6 -11 11 -25 11 -21 0 -25 -5 -25 -30 0 -25 -4 -30 -24
-30 -14 0 -28 5 -31 10 -3 6 3 10 14 10 28 0 27 20 -1 21 -22 1 -22 1 2 9 l25
8 -27 1 c-24 1 -28 -3 -29 -26 -1 -23 -2 -24 -6 -6 -5 27 -21 40 -53 45 -31 4
-46 50 -30 92 l11 29 97 -7 c53 -4 114 -9 134 -13z m-327 -30 c41 -62 26 -136
-35 -168 -29 -15 -30 -15 -30 10 0 36 -18 31 -23 -7 -4 -32 -4 -32 -5 5 -2 34
-22 55 -22 22 0 -20 -17 -19 -29 3 -9 14 -11 11 -12 -18 -1 -19 -3 -27 -6 -17
-2 9 -11 17 -19 17 -8 0 -12 -4 -9 -10 8 -12 -5 -13 -24 -1 -21 13 -2 33 25
27 30 -8 31 0 3 14 -16 9 -24 8 -39 -5 -18 -16 -19 -15 -34 14 -25 47 -21 80
12 92 25 10 197 56 214 58 4 1 19 -16 33 -36z m-2940 7 c15 -6 25 -13 22 -16
-6 -6 -67 23 -67 32 0 3 4 3 9 0 4 -3 21 -10 36 -16z m3448 -53 c58 -32 127
-57 127 -47 0 5 -28 23 -62 40 -35 17 -52 28 -38 24 38 -10 168 -75 180 -89
14 -17 -9 -65 -44 -92 -32 -26 -86 -20 -86 9 0 16 5 19 25 16 28 -6 34 6 9 16
-25 10 -33 7 -44 -14 -8 -14 -8 -26 0 -40 9 -17 8 -20 -9 -20 -17 0 -18 5 -14
41 6 40 5 41 -23 37 -20 -2 -29 -9 -29 -20 0 -25 -19 -23 -23 2 -2 12 -11 20
-22 20 -33 0 -42 78 -14 118 19 27 16 27 67 -1z m206 -43 c14 -12 -19 -1 -35
12 -18 14 -18 14 6 3 14 -6 27 -13 29 -15z m-1154 6 c-3 -5 -15 -10 -27 -10
-49 0 -102 -56 -119 -124 l-7 -31 -1 35 c-1 42 26 87 71 117 33 22 95 32 83
13z m65 0 c13 -9 13 -10 0 -9 -8 0 -24 4 -35 9 l-20 9 20 0 c11 0 27 -4 35 -9z
m524 -32 c-3 -5 -12 -4 -20 3 -7 6 -11 15 -8 21 3 5 12 4 20 -3 7 -6 11 -15 8
-21z m-477 -23 c31 -21 63 -73 63 -105 0 -35 -34 -86 -70 -105 -30 -15 -30
-15 -30 10 0 15 -4 24 -9 21 -5 -3 -7 -15 -4 -26 4 -13 0 -20 -10 -20 -20 0
-30 29 -16 46 8 9 8 14 1 14 -6 0 -14 -5 -17 -10 -5 -8 -11 -7 -21 1 -12 9
-14 6 -16 -22 l-1 -34 -4 33 c-5 38 -23 43 -23 6 0 -25 -1 -26 -22 -12 -27 18
-54 55 -63 85 -5 19 7 32 75 87 75 58 85 63 112 55 17 -4 41 -15 55 -24z m61
-8 c12 -18 22 -46 21 -63 -1 -29 -1 -29 -11 6 -5 19 -21 50 -34 67 -14 18 -19
30 -12 28 7 -3 23 -20 36 -38z m-1349 -16 l20 -28 -22 -22 c-13 -11 -39 -23
-58 -25 -38 -5 -119 26 -119 45 0 8 7 6 19 -5 19 -17 19 -17 15 2 -4 14 6 27
41 50 53 35 69 33 104 -17z m1161 45 c0 -2 -8 -10 -17 -17 -16 -13 -17 -12 -4
4 13 16 21 21 21 13z m-2435 -16 c18 -8 18 -9 -5 -9 -14 0 -32 4 -40 9 -12 8
-12 10 5 9 11 0 29 -4 40 -9z m125 -14 c0 -11 -19 -15 -25 -6 -3 5 1 10 9 10
9 0 16 -2 16 -4z m2260 -11 c-7 -9 -27 -25 -44 -36 -24 -16 -22 -12 9 15 43
38 55 46 35 21z m2381 -23 c28 -25 30 -31 20 -50 -19 -36 -103 -33 -141 4
l-25 24 29 25 c39 33 78 32 117 -3z m-1991 3 c0 -8 -7 -15 -15 -15 -8 0 -15 7
-15 15 0 8 7 15 15 15 8 0 15 -7 15 -15z m1047 -12 c30 -15 63 -38 74 -51 21
-27 26 -97 8 -122 -9 -13 -10 -12 -5 3 3 9 2 17 -2 17 -4 0 -8 17 -10 38 -3
50 -28 82 -86 111 -45 22 -53 23 -108 13 -68 -13 -82 -22 -108 -71 -17 -32
-19 -33 -20 -12 0 14 15 38 39 62 37 37 42 39 100 39 47 0 76 -7 118 -27z
m-397 7 c0 -5 -4 -10 -10 -10 -5 0 -10 5 -10 10 0 6 5 10 10 10 6 0 10 -4 10
-10z m480 -22 c0 -6 -6 -5 -15 2 -8 7 -15 14 -15 16 0 2 7 1 15 -2 8 -4 15
-11 15 -16z m-2240 -4 c0 -8 -5 -12 -10 -9 -6 4 -8 11 -5 16 9 14 15 11 15 -7z
m1103 -25 c-94 -47 -200 -138 -241 -208 -15 -25 -41 -86 -59 -136 -40 -114
-43 -93 -3 26 41 122 49 136 125 210 71 68 151 124 200 138 64 19 57 9 -22
-30z m-618 21 c3 -5 1 -10 -4 -10 -6 0 -11 5 -11 10 0 6 2 10 4 10 3 0 8 -4
11 -10z m1280 0 c-3 -5 -10 -10 -16 -10 -5 0 -9 5 -9 10 0 6 7 10 16 10 8 0
12 -4 9 -10z m367 -27 c17 -18 27 -33 21 -33 -7 0 -21 14 -33 30 -12 17 -26
30 -32 30 -12 0 46 -68 82 -95 l25 -19 -19 22 c-11 12 -15 22 -10 22 11 0 39
-41 36 -52 -1 -5 3 -8 8 -8 21 0 9 -39 -22 -69 -56 -55 -122 -61 -199 -19
-123 67 -73 231 68 226 34 -1 49 -8 75 -35z m188 27 c0 -5 -2 -10 -4 -10 -3 0
-8 5 -11 10 -3 6 -1 10 4 10 6 0 11 -4 11 -10z m-3985 -35 c30 -13 30 -13 4
-14 -14 -1 -34 6 -45 14 -25 19 -1 19 41 0z m4345 5 c0 -5 -2 -10 -4 -10 -3 0
-8 5 -11 10 -3 6 -1 10 4 10 6 0 11 -4 11 -10z m-1526 -38 c-82 -54 -191 -161
-200 -197 -3 -17 -15 -43 -24 -60 -10 -16 -22 -48 -25 -70 -10 -52 -24 -80
-24 -45 0 46 26 138 55 190 34 63 137 160 207 195 74 36 79 31 11 -13z m-2671
11 c-7 -2 -21 -2 -30 0 -10 3 -4 5 12 5 17 0 24 -2 18 -5z m1003 -18 c-3 -8 1
-18 7 -23 19 -16 16 -270 -3 -282 -13 -8 -13 -10 2 -10 17 0 25 -50 32 -203 2
-37 8 -63 17 -69 11 -8 11 -9 -3 -5 -18 6 -33 -19 -18 -28 6 -4 10 -13 10 -22
0 -11 -6 -14 -22 -10 -20 6 -20 4 5 -16 20 -16 24 -26 17 -37 -8 -12 -10 -10
-10 10 0 18 -3 21 -9 11 -9 -15 -9 -23 3 -59 4 -12 12 -20 17 -17 12 8 11 3
-1 -30 -8 -20 -15 -26 -30 -22 -11 3 -23 0 -27 -5 -3 -7 -1 -8 5 -4 7 4 12 3
12 -3 0 -6 6 -8 13 -5 8 3 14 -2 14 -10 0 -8 -5 -12 -10 -9 -5 3 -13 -1 -18
-8 -5 -9 -2 -17 12 -25 18 -9 15 -11 -22 -12 -40 -2 -42 -1 -23 14 10 8 13 12
5 8 -9 -5 -12 -3 -7 5 4 6 12 9 17 6 5 -4 9 -2 9 3 0 17 -13 22 -29 9 -8 -6
-5 3 8 20 12 18 19 37 16 43 -9 15 1 12 19 -5 9 -10 17 -11 21 -5 4 6 -7 15
-24 21 -19 7 -31 18 -31 29 0 10 -8 27 -17 36 -17 17 -17 18 0 11 10 -4 16 -3
13 2 -3 4 -1 22 4 40 5 20 5 31 -1 31 -15 0 -1 583 14 592 9 5 9 8 1 8 -7 0
-9 10 -6 25 2 14 9 22 14 19 5 -3 7 -12 4 -19z m1960 15 c8 0 14 -7 14 -15 0
-8 -5 -15 -10 -15 -6 0 -4 -11 5 -24 30 -45 -14 -76 -61 -41 -18 13 -17 14 10
12 16 -1 31 4 33 11 3 7 -4 12 -16 12 -22 0 -28 14 -11 25 16 10 12 28 -5 21
-8 -3 -15 -2 -15 3 0 14 14 22 28 16 7 -3 20 -5 28 -5z m486 -135 c63 -84 92
-140 108 -209 17 -77 20 -106 10 -106 -6 0 -10 12 -10 28 -1 104 -84 262 -194
366 -41 38 -41 38 -7 20 18 -11 61 -55 93 -99z m-658 53 c-1 -46 -3 -53 -20
-50 -10 2 -25 4 -31 4 -19 2 -16 26 8 64 30 50 44 43 43 -18z m1021 20 l16
-33 -21 24 c-11 13 -20 27 -20 32 0 18 10 8 25 -23z m-671 6 c17 -17 15 -26
-17 -61 l-20 -23 21 0 c12 0 22 -4 22 -10 0 -14 -33 -12 -54 3 -16 12 -15 14
8 36 25 24 35 51 18 51 -4 0 -13 -5 -20 -12 -17 -17 -28 -2 -12 17 16 19 34
19 54 -1z m1617 -6 c2 -25 -3 -53 -12 -62 -5 -6 -9 6 -9 32 0 23 5 42 10 42 6
0 11 -6 11 -12z m-1373 -106 c62 -97 95 -234 74 -307 -7 -26 -11 -16 -25 74
-17 107 -43 174 -98 243 -16 20 -29 41 -29 46 0 5 -7 15 -15 22 -8 7 -15 17
-15 22 0 19 79 -53 108 -100z m-1061 72 c-9 -9 -28 6 -21 18 4 6 10 6 17 -1 6
-6 8 -13 4 -17z m-2452 1 c23 -10 26 -14 10 -14 -29 -1 -65 10 -65 20 0 13 20
10 55 -6z m2334 6 c8 -5 -11 -7 -50 -4 -75 5 -120 -14 -156 -67 -26 -38 -31
-22 -7 19 26 45 62 60 134 61 36 0 71 -4 79 -9z m-2186 -28 c-7 -2 -21 -2 -30
0 -10 3 -4 5 12 5 17 0 24 -2 18 -5z m2191 -7 c38 -16 73 -61 82 -105 8 -41
-13 -93 -35 -86 -21 6 -38 -5 -50 -35 -9 -24 -10 -24 -12 10 -1 19 -3 27 -6
18 -5 -22 -22 -23 -29 -3 -10 25 -24 17 -24 -14 0 -17 -4 -33 -10 -36 -6 -4
-10 8 -10 29 0 37 -16 48 -27 19 -5 -14 -8 -13 -14 5 -11 29 -29 28 -29 0 -1
-22 -1 -22 -25 5 -38 43 -42 74 -14 126 39 73 122 101 203 67z m92 -37 c8 -16
14 -41 13 -56 -1 -27 -1 -26 -9 6 -4 18 -17 46 -29 62 -12 15 -21 31 -21 35 0
13 31 -20 46 -47z m1484 36 c0 -8 -4 -15 -10 -15 -5 0 -7 7 -4 15 4 8 8 15 10
15 2 0 4 -7 4 -15z m-1130 -11 c0 -7 -10 -9 -25 -6 -14 2 -25 0 -25 -6 0 -6
10 -12 23 -14 26 -4 35 -41 16 -64 -14 -17 -50 -15 -57 4 -3 9 3 11 22 6 22
-5 26 -3 26 16 0 19 -4 21 -25 16 -23 -6 -25 -4 -25 28 0 32 2 34 35 33 19 -1
35 -6 35 -13z m610 -74 c0 -33 -4 -60 -10 -60 -6 0 -10 27 -10 60 0 33 4 60
10 60 6 0 10 -27 10 -60z m-1725 10 c3 -5 1 -10 -4 -10 -6 0 -11 5 -11 10 0 6
2 10 4 10 3 0 8 -4 11 -10z m-1631 -21 c8 -7 -10 -7 -57 0 -5 0 -5 6 -2 11 7
11 43 4 59 -11z m4401 11 c3 -5 1 -10 -4 -10 -6 0 -11 5 -11 10 0 6 2 10 4 10
3 0 8 -4 11 -10z m-1737 -78 c3 -9 -3 -11 -22 -6 -15 3 -26 2 -26 -4 0 -5 11
-13 25 -16 31 -8 35 -50 5 -66 -32 -17 -60 4 -60 45 0 54 9 66 43 63 17 -2 32
-9 35 -16z m-641 -24 c-3 -8 -6 -5 -6 6 -1 11 2 17 5 13 3 -3 4 -12 1 -19z
m-2027 -18 c11 -7 7 -10 -18 -10 -20 0 -31 4 -27 10 8 13 26 13 45 0z m2473
-86 c4 -138 39 -223 136 -327 62 -67 69 -76 34 -51 -134 97 -217 293 -187 443
10 49 15 31 17 -65z m-128 76 c-3 -5 -11 -10 -16 -10 -6 0 -7 5 -4 10 3 6 11
10 16 10 6 0 7 -4 4 -10z m-308 -162 c17 45 69 92 102 92 l26 -1 -30 -16 c-45
-23 -65 -44 -86 -87 -25 -52 -24 -58 10 -164 47 -143 114 -257 207 -354 91
-95 88 -104 -5 -13 -45 44 -85 80 -89 80 -4 0 -16 13 -27 30 -35 52 -39 59
-27 51 17 -10 14 5 -6 37 -10 15 -22 24 -27 20 -4 -5 -5 -2 -1 4 4 7 -2 33
-12 57 -39 87 -68 224 -66 309 3 103 8 112 13 22 6 -93 7 -98 18 -67z m223
136 c0 -8 -4 -14 -10 -14 -5 0 -10 9 -10 21 0 11 5 17 10 14 6 -3 10 -13 10
-21z m-60 12 c0 -3 -4 -8 -10 -11 -5 -3 -10 -1 -10 4 0 6 5 11 10 11 6 0 10
-2 10 -4z m1371 -229 c-25 -73 -82 -157 -139 -207 -45 -40 -187 -118 -197
-108 -3 3 16 15 43 26 176 76 297 254 304 447 2 51 3 48 5 -22 3 -61 -1 -95
-16 -136z m-1291 128 c60 -31 92 -97 76 -159 -7 -27 -39 -36 -52 -15 -4 8 0 9
15 4 25 -8 29 10 4 19 -19 8 -48 -17 -39 -33 4 -6 14 -11 22 -11 8 0 14 -5 14
-11 0 -6 -9 -8 -21 -4 -16 5 -19 4 -14 -5 21 -34 -94 -41 -155 -10 -55 28 -86
89 -71 140 26 88 133 129 221 85z m385 14 c4 -5 0 -18 -9 -28 -9 -9 -21 -32
-27 -49 -11 -32 -29 -44 -29 -19 0 7 9 29 19 50 l19 37 -24 0 c-13 0 -24 5
-24 10 0 13 67 13 75 -1z m-307 -26 c11 -16 22 -44 26 -63 6 -32 5 -33 -5 -10
-7 14 -20 42 -30 63 -22 44 -18 48 9 10z m-2338 7 c0 -5 -11 -10 -25 -10 -14
0 -25 5 -25 10 0 6 11 10 25 10 14 0 25 -4 25 -10z m1981 -289 c23 -87 18
-109 -6 -25 -23 80 -35 159 -34 224 1 46 3 40 11 -35 5 -49 18 -123 29 -164z
m2026 167 c-3 -7 -5 -2 -5 12 0 14 2 19 5 13 2 -7 2 -19 0 -25z m-3987 2 c0
-5 -13 -10 -30 -10 -16 0 -30 5 -30 10 0 6 14 10 30 10 17 0 30 -4 30 -10z
m2687 -39 c-2 -10 0 -25 4 -34 19 -34 -16 -66 -52 -47 -16 9 -18 19 -15 57 3
25 11 50 17 54 19 12 52 -10 46 -30z m1288 -31 c-9 -41 -17 -33 -9 9 4 17 9
30 11 27 3 -2 2 -19 -2 -36z m-2615 -3 c0 -2 -11 -14 -25 -27 -14 -13 -25 -21
-25 -17 0 3 10 15 22 27 21 19 28 24 28 17z m-405 -17 c3 -5 1 -10 -4 -10 -6
0 -11 5 -11 10 0 6 2 10 4 10 3 0 8 -4 11 -10z m3035 -70 c-7 -39 -14 -69 -17
-66 -3 2 1 37 8 75 7 39 14 69 17 67 2 -3 -1 -37 -8 -76z m-2586 61 c3 -5 -2
-15 -12 -22 -15 -12 -16 -12 -5 2 7 9 10 19 6 22 -3 4 -4 7 0 7 3 0 8 -4 11
-9z m-1389 -21 c4 -6 -7 -10 -27 -10 -25 0 -29 3 -18 10 19 13 37 13 45 0z
m1487 -52 c-4 -28 -3 -31 10 -21 12 10 15 10 15 0 0 -6 2 -18 4 -26 2 -7 -2
-15 -9 -16 -7 -2 -8 -1 -3 1 6 3 7 12 4 20 -4 11 -9 12 -19 3 -8 -6 -14 -8
-14 -3 0 5 -4 3 -9 -4 -7 -11 -9 -10 -14 3 -4 9 -3 13 2 10 18 -10 24 37 7 53
-10 11 -16 12 -16 4 0 -7 -9 -12 -20 -12 -14 0 -18 5 -13 16 4 11 8 12 13 4 5
-8 11 -6 19 4 22 26 49 4 43 -36z m1321 38 c32 -24 15 -106 -21 -106 -19 0
-42 18 -42 32 0 5 9 4 20 -2 11 -6 25 -8 31 -4 7 4 -1 12 -20 20 -32 14 -41
40 -19 62 15 15 29 15 51 -2z m-583 -3 c-1 -5 -15 -17 -33 -28 -18 -11 -42
-40 -54 -65 -13 -26 -22 -37 -23 -27 0 32 29 81 63 105 33 23 47 27 47 15z
m1694 -80 c-59 -148 -188 -306 -327 -400 -63 -43 -115 -61 -67 -23 14 11 29
20 33 20 15 0 120 86 168 137 85 89 184 248 204 328 4 17 9 25 12 18 2 -6 -8
-42 -23 -80z m702 66 c1 -5 2 -12 3 -15 0 -4 8 -1 16 6 13 11 15 9 13 -11 -2
-15 2 -23 10 -21 10 2 10 -2 2 -17 -14 -27 -13 -34 5 -27 13 5 14 2 4 -15 -6
-13 -16 -18 -26 -15 -13 5 -14 4 -4 -8 19 -23 -5 -30 -34 -9 -23 17 -33 35
-17 31 4 0 16 3 27 7 19 9 19 9 -5 15 -16 4 -30 0 -40 -10 -8 -9 -12 -11 -9
-5 3 5 9 21 12 35 l6 25 -20 -24 c-23 -28 -25 -12 -4 29 22 42 57 59 61 29z
m-3251 2 c3 -5 2 -12 -3 -15 -5 -3 -9 1 -9 9 0 17 3 19 12 6z m978 -25 c18 -8
41 -22 51 -30 19 -16 19 -16 -3 -37 l-23 -21 26 -27 c14 -15 26 -32 26 -38 0
-6 5 -13 11 -15 7 -2 -1 -19 -20 -40 -69 -79 -206 -67 -261 25 -25 41 -25 68
1 118 33 67 122 96 192 65z m-918 -6 c3 -5 1 -10 -4 -10 -6 0 -11 5 -11 10 0
6 2 10 4 10 3 0 8 -4 11 -10z m1555 0 c19 -10 21 -40 5 -90 -9 -28 -51 -27
-59 3 -8 30 -8 82 1 90 9 10 31 9 53 -3z m-1986 -8 c3 -5 -1 -9 -9 -9 -8 0
-12 4 -9 9 3 4 7 8 9 8 2 0 6 -4 9 -8z m-28 -72 c8 0 11 -6 8 -15 -4 -8 -9
-15 -13 -15 -10 0 -31 62 -30 86 1 10 6 2 11 -18 6 -21 16 -38 24 -38z m1500
-6 l4 -39 -14 43 c-8 23 -20 50 -27 60 -8 10 -4 9 9 -4 13 -12 25 -37 28 -60z
m-344 -174 c117 -155 352 -305 574 -367 93 -25 112 -27 294 -27 145 0 209 4
248 16 29 8 50 12 45 8 -16 -16 -130 -40 -208 -45 -202 -12 -269 -13 -250 -4
15 7 11 8 -17 6 -21 -2 -38 1 -38 6 0 5 -11 7 -25 4 -14 -2 -23 -2 -20 1 9 9
-109 42 -130 36 -14 -4 -16 -3 -7 4 18 13 -13 25 -41 16 -11 -4 -17 -2 -14 3
4 6 -6 15 -21 22 -26 11 -26 11 -7 -5 l20 -17 -20 7 c-30 10 -171 97 -211 129
-19 16 -32 32 -29 37 3 4 -3 14 -13 21 -15 13 -16 12 -3 -3 29 -38 -9 -15 -51
30 -70 75 -136 168 -172 246 -51 106 -53 133 -4 36 24 -47 69 -119 100 -160z
m-1120 198 c-6 -6 -12 -6 -17 3 -5 8 -4 10 3 5 7 -4 12 0 13 11 0 12 2 13 6 5
3 -8 1 -18 -5 -24z m2218 22 c-8 -5 -19 -10 -25 -10 -5 0 -3 5 5 10 8 5 20 10
25 10 6 0 3 -5 -5 -10z m-3215 -20 c4 -6 -8 -10 -30 -10 -22 0 -34 4 -30 10 3
6 17 10 30 10 13 0 27 -4 30 -10z m1432 4 c-3 -3 -12 -4 -19 -1 -8 3 -5 6 6 6
11 1 17 -2 13 -5z m667 -264 c27 -36 59 -77 70 -91 12 -14 4 -7 -17 15 -58 61
-126 154 -157 216 -48 97 -43 108 7 15 26 -50 70 -120 97 -155z m2506 190 c0
-5 -2 -10 -4 -10 -3 0 -8 5 -11 10 -3 6 -1 10 4 10 6 0 11 -4 11 -10z m-3713
-32 c-3 -8 -6 -5 -6 6 -1 11 2 17 5 13 3 -3 4 -12 1 -19z m-898 3 c10 -6 5
-11 -18 -16 -36 -8 -53 1 -31 15 19 12 31 12 49 1z m1086 -11 c-20 -22 -39
-27 -32 -7 2 6 10 11 16 10 6 -2 11 2 11 7 0 6 5 10 12 10 6 0 3 -9 -7 -20z
m2805 10 c0 -5 -5 -10 -11 -10 -5 0 -7 5 -4 10 3 6 8 10 11 10 2 0 4 -4 4 -10z
m-581 -64 c11 -36 30 -84 41 -106 27 -53 10 -44 -23 13 -39 66 -62 157 -41
157 2 0 12 -29 23 -64z m-2414 33 c-3 -4 11 -11 30 -15 49 -9 36 -18 -14 -9
-31 5 -41 11 -41 26 0 12 5 16 15 13 8 -4 13 -10 10 -15z m1572 -10 c-15 -12
-42 -44 -58 -73 -23 -39 -29 -44 -24 -22 9 40 34 76 70 97 40 25 47 23 12 -2z
m-1611 2 c-4 -5 0 -12 6 -15 9 -3 5 -12 -12 -26 -14 -13 -18 -21 -10 -19 8 1
31 -5 50 -15 l35 -16 -40 7 c-22 4 -50 7 -62 8 -13 0 -23 2 -23 5 0 13 32 50
40 45 4 -3 6 4 3 15 -3 12 0 20 6 20 7 0 10 -4 7 -9z m3035 -14 c-10 -9 -11
-8 -5 6 3 10 9 15 12 12 3 -3 0 -11 -7 -18z m-2792 -13 c2 -2 -25 -4 -60 -3
-47 1 -57 3 -39 9 22 7 89 3 99 -6z m1510 -13 c15 -16 44 -36 64 -44 28 -12
37 -23 42 -49 25 -132 -165 -204 -268 -102 -70 70 -52 170 38 210 51 23 94 18
124 -15z m2034 16 c4 3 7 2 7 -4 0 -5 -17 -10 -37 -11 -35 -1 -37 0 -19 13 13
10 23 11 31 5 7 -5 15 -7 18 -3z m-2451 -72 c6 -11 -8 -2 -31 20 -22 21 -41
43 -41 49 0 13 59 -43 72 -69z m547 -23 l-1 -37 -8 38 c-4 21 -17 52 -29 70
l-23 32 31 -33 c24 -25 31 -41 30 -70z m1134 47 c-1 -38 -13 -71 -13 -36 0 29
-13 19 -64 -49 -27 -36 -79 -90 -115 -121 -87 -75 -112 -91 -42 -28 77 71 181
194 175 209 -3 7 3 19 13 27 16 13 17 12 4 -4 -8 -9 -11 -20 -8 -24 3 -3 16
11 28 31 11 20 22 36 22 36 1 0 1 -18 0 -41z m-2396 25 c-3 -3 -12 -4 -19 -1
-8 3 -5 6 6 6 11 1 17 -2 13 -5z m126 -1 c-7 -2 -21 -2 -30 0 -10 3 -4 5 12 5
17 0 24 -2 18 -5z m65 0 c-10 -2 -26 -2 -35 0 -10 3 -2 5 17 5 19 0 27 -2 18
-5z m159 1 c-3 -3 -12 -4 -19 -1 -8 3 -5 6 6 6 11 1 17 -2 13 -5z m-1827 -13
c0 -5 -16 -11 -35 -13 -34 -4 -48 5 -22 15 21 9 57 7 57 -2z m3277 -43 c-2
-13 -4 -5 -4 17 -1 22 1 32 4 23 2 -10 2 -28 0 -40z m971 45 c-65 -2 -171 -2
-235 0 -65 1 -12 3 117 3 129 0 182 -2 118 -3z m265 0 c-7 -2 -19 -2 -25 0 -7
3 -2 5 12 5 14 0 19 -2 13 -5z m-4543 -38 c0 -2 -13 -11 -30 -20 -38 -19 -40
-11 -2 9 31 17 32 18 32 11z m20 -37 c-41 -22 -101 -61 -132 -84 -32 -24 -58
-40 -58 -35 0 19 88 84 165 121 105 52 119 50 25 -2z m828 31 c-19 -10 -38
-67 -38 -111 0 -16 -4 -28 -10 -28 -12 0 -12 1 0 74 9 59 21 76 50 76 12 -1
12 -3 -2 -11z m1984 -21 c-17 -18 -38 -49 -46 -68 -9 -20 -15 -27 -16 -17 0
27 26 73 56 96 39 31 42 26 6 -11z m276 -38 c13 -19 22 -48 22 -69 -1 -35 -1
-35 -19 17 -10 28 -27 62 -37 73 -14 16 -15 21 -4 17 8 -2 25 -19 38 -38z
m242 19 c0 -6 -4 -7 -10 -4 -5 3 -10 11 -10 16 0 6 5 7 10 4 6 -3 10 -11 10
-16z m-2227 -11 c22 -12 18 -30 -11 -43 -12 -5 -24 -16 -27 -23 -2 -7 -1 -11
3 -8 4 2 7 -8 7 -24 1 -19 -3 -26 -12 -23 -7 3 -12 12 -11 20 2 10 -7 16 -25
19 -15 1 -26 0 -24 -4 2 -4 -8 -18 -21 -32 -14 -15 -23 -19 -21 -10 2 8 -2 25
-9 38 -7 12 -10 22 -7 22 3 0 -2 14 -11 32 -15 30 -15 32 2 45 21 15 133 9
167 -9z m2251 -136 l27 -53 32 18 c56 32 62 41 41 66 -14 16 -11 15 13 -5 18
-15 43 -30 55 -34 24 -7 54 -33 41 -35 -28 -4 -39 -4 -48 2 -5 4 -23 1 -40 -6
-16 -7 -24 -14 -16 -14 11 -1 10 -5 -5 -16 -24 -18 -40 -19 -25 -1 9 11 6 12
-16 8 -16 -3 -22 -7 -15 -9 14 -5 17 -43 2 -43 -5 0 -10 5 -10 12 0 6 -20 52
-45 102 -25 50 -48 109 -51 131 -4 37 -3 36 14 -15 10 -30 31 -79 46 -108z
m-464 109 c31 -17 62 -25 105 -27 79 -2 74 -1 85 -29 12 -32 -9 -84 -49 -118
-101 -85 -280 3 -257 127 7 36 54 95 64 80 4 -5 27 -20 52 -33z m862 7 c-7 -7
-12 -8 -12 -2 0 14 12 26 19 19 2 -3 -1 -11 -7 -17z m1034 5 c20 -8 16 -152
-5 -169 -11 -9 -12 -12 -1 -19 9 -5 11 -4 6 3 -4 7 -5 12 -2 12 3 0 10 -9 15
-19 9 -16 8 -18 -8 -14 -10 3 -21 1 -24 -4 -9 -14 -68 -3 -74 13 -3 8 -9 11
-15 8 -5 -3 -4 -13 4 -22 10 -14 10 -15 -2 -5 -17 16 -21 53 -4 53 12 0 24 22
24 46 0 8 -7 14 -16 14 -8 0 -12 5 -9 11 4 6 -2 19 -13 29 -13 13 -22 15 -24
8 -3 -7 -13 -1 -27 13 -18 20 -23 21 -31 9 -7 -10 -10 -11 -10 -2 0 6 -7 12
-15 12 -21 0 -19 20 3 21 28 1 53 7 60 14 8 8 143 -2 168 -12z m-1419 -55 c-3
-8 -6 -5 -6 6 -1 11 2 17 5 13 3 -3 4 -12 1 -19z m-1001 -14 c25 -15 43 -29
40 -32 -3 -2 -27 9 -53 27 -58 37 -49 41 13 5z m-1321 -14 c-4 -6 -3 -16 2
-23 20 -26 -1 -66 -33 -62 -15 1 -24 -3 -24 -11 0 -8 8 -14 18 -15 10 0 12 -3
5 -6 -10 -3 -10 -10 -2 -25 8 -15 8 -19 0 -14 -11 7 -14 -13 -13 -79 0 -45 1
-45 19 -45 9 0 13 -3 9 -7 -4 -5 9 -13 31 -19 l38 -12 -28 -7 c-34 -9 -177 3
-177 15 0 5 9 12 20 15 11 4 17 11 14 17 -5 7 -1 9 9 5 11 -4 20 1 27 13 13
24 13 33 0 25 -5 -3 -10 -1 -10 4 0 6 5 11 10 11 6 0 10 11 10 25 0 14 5 25
12 25 9 0 9 3 0 12 -7 7 -12 20 -12 30 0 10 -10 23 -22 28 l-23 9 24 0 c14 1
21 6 18 14 -2 6 1 18 9 24 9 9 14 9 16 1 7 -20 38 0 38 25 0 13 3 27 7 30 10
11 15 8 8 -3z m-260 -10 c3 -5 1 -10 -4 -10 -6 0 -11 5 -11 10 0 6 2 10 4 10
3 0 8 -4 11 -10z m1476 -17 c13 -16 12 -17 -3 -4 -10 7 -18 15 -18 17 0 8 8 3
21 -13z m2427 -28 c-3 -3 -9 2 -12 12 -6 14 -5 15 5 6 7 -7 10 -15 7 -18z
m-3760 -45 c0 -19 -4 -30 -10 -28 -12 4 -19 47 -11 61 9 15 20 -3 21 -33z
m-156 -22 c-9 -9 -12 -7 -12 12 0 19 3 21 12 12 9 -9 9 -15 0 -24z m1658 -35
c3 -3 -9 1 -26 10 -17 9 -37 23 -44 33 -12 14 55 -27 70 -43z m-1505 7 c3 -5
-1 -10 -10 -10 -9 0 -13 5 -10 10 3 6 8 10 10 10 2 0 7 -4 10 -10z m1682 -74
c72 -28 130 -58 78 -40 -75 25 -163 60 -180 72 l-20 14 20 -7 c11 -4 57 -22
102 -39z m-2537 -46 c-10 -19 -41 -40 -57 -40 -7 1 57 60 64 60 2 0 -1 -9 -7
-20z m2355 2 c-3 -3 -11 0 -18 7 -9 10 -8 11 6 5 10 -3 15 -9 12 -12z m840 8
c-11 -5 -29 -8 -40 -8 -16 0 -15 2 5 8 34 11 60 11 35 0z m1505 -38 c0 -19 3
-23 11 -15 12 12 49 6 49 -8 0 -5 -71 -8 -157 -8 -133 1 -148 3 -94 10 35 4
71 11 80 15 9 4 27 8 40 10 13 2 31 10 39 18 20 20 32 11 32 -22z m-4045 18
c3 -6 -1 -7 -9 -4 -18 7 -21 14 -7 14 6 0 13 -4 16 -10z m2082 -6 c-3 -3 -12
-4 -19 -1 -8 3 -5 6 6 6 11 1 17 -2 13 -5z m56 -1 c-7 -2 -21 -2 -30 0 -10 3
-4 5 12 5 17 0 24 -2 18 -5z m-2215 -56 c-12 -56 -15 -56 -14 1 1 32 5 48 12
45 8 -3 9 -16 2 -46z m-718 14 c0 -5 -9 -7 -20 -4 -11 3 -20 7 -20 9 0 2 9 4
20 4 11 0 20 -4 20 -9z m905 -42 c-7 -10 -35 -1 -35 11 0 5 9 6 20 3 11 -3 17
-9 15 -14z m260 -10 c14 -5 4 -8 -35 -10 -89 -4 -95 -5 -93 -15 2 -15 -25 -35
-32 -24 -3 6 -1 10 4 10 6 0 11 6 11 14 0 8 -16 15 -41 19 -23 3 -46 10 -53
17 -12 12 204 3 239 -11z m80 -10 c11 -17 -1 -21 -15 -4 -8 9 -8 15 -2 15 6 0
14 -5 17 -11z m50 1 c3 -5 2 -10 -4 -10 -5 0 -13 5 -16 10 -3 6 -2 10 4 10 5
0 13 -4 16 -10z m2873 3 c-21 -2 -57 -2 -80 0 -24 2 -7 4 37 4 44 0 63 -2 43
-4z m100 0 c-10 -2 -28 -2 -40 0 -13 2 -5 4 17 4 22 1 32 -1 23 -4z m642 -12
c-29 -23 -90 -37 -99 -23 -12 18 -70 24 -290 28 -123 2 -226 6 -229 8 -2 3
141 5 319 5 322 1 324 1 299 -18z m-3590 -81 c0 -11 -92 -11 -109 0 -9 5 10 8
48 8 33 0 61 -4 61 -8z m3320 0 c0 -5 -7 -10 -15 -10 -8 0 -15 5 -15 10 0 6 7
10 15 10 8 0 15 -4 15 -10z m-3087 -7 c-7 -2 -21 -2 -30 0 -10 3 -4 5 12 5 17
0 24 -2 18 -5z"/>
<path d="M3409 3958 c-6 -55 1 -98 17 -98 15 0 18 30 8 93 -8 46 -21 48 -25 5z"/>
<path d="M2841 1824 c0 -11 3 -14 6 -6 3 7 2 16 -1 19 -3 4 -6 -2 -5 -13z"/>
<path d="M2844 1716 c-3 -7 -4 -38 -2 -67 l3 -54 5 68 c5 67 4 79 -6 53z"/>
<path d="M2843 1535 c0 -22 2 -30 4 -17 2 12 2 30 0 40 -3 9 -5 -1 -4 -23z"/>
<path d="M2843 1370 c0 -36 2 -50 4 -32 2 17 2 47 0 65 -2 17 -4 3 -4 -33z"/>
<path d="M2843 1245 c0 -27 2 -38 4 -22 2 15 2 37 0 50 -2 12 -4 0 -4 -28z"/>
<path d="M2840 1151 c0 -6 4 -13 10 -16 6 -3 7 1 4 9 -7 18 -14 21 -14 7z"/>
<path d="M2845 1100 c3 -5 8 -10 11 -10 2 0 4 5 4 10 0 6 -5 10 -11 10 -5 0
-7 -4 -4 -10z"/>
<path d="M7030 4239 c0 -6 -7 -8 -16 -5 -8 3 -12 2 -9 -4 10 -15 35 -12 35 5
0 8 -2 15 -5 15 -3 0 -5 -5 -5 -11z"/>
<path d="M6535 4050 c3 -5 8 -10 11 -10 2 0 4 5 4 10 0 6 -5 10 -11 10 -5 0
-7 -4 -4 -10z"/>
<path d="M6497 4030 c8 -30 21 -34 15 -5 -2 14 -8 25 -12 25 -5 0 -6 -9 -3
-20z"/>
<path d="M2800 3076 c0 -2 8 -10 18 -17 15 -13 16 -12 3 4 -13 16 -21 21 -21
13z"/>
<path d="M4456 2365 c4 -8 10 -12 15 -9 11 6 2 24 -11 24 -5 0 -7 -7 -4 -15z"/>
<path d="M5043 2443 c9 -2 25 -2 35 0 9 3 1 5 -18 5 -19 0 -27 -2 -17 -5z"/>
<path d="M4932 2121 c44 -15 162 -21 150 -9 -6 6 -49 13 -94 15 -59 2 -75 0
-56 -6z"/>
<path d="M4686 2105 c-3 -9 0 -15 8 -15 7 0 13 7 13 15 0 8 -4 15 -8 15 -4 0
-9 -7 -13 -15z"/>
<path d="M2986 1102 c-2 -4 2 -16 10 -27 8 -10 14 -14 14 -8 0 7 -5 15 -10 18
-6 4 -8 11 -5 16 4 5 4 9 1 9 -3 0 -7 -3 -10 -8z"/>
<path d="M4756 1741 c-4 -7 -5 -15 -2 -18 9 -9 19 4 14 18 -4 11 -6 11 -12 0z"/>
<path d="M4524 1489 c-8 -14 11 -33 25 -25 16 10 13 36 -3 36 -8 0 -18 -5 -22
-11z"/>
<path d="M4041 935 c0 -5 11 -23 25 -40 14 -16 21 -21 16 -10 -16 30 -41 61
-41 50z"/>
<path d="M4177 1349 c7 -7 15 -10 18 -7 3 3 -2 9 -12 12 -14 6 -15 5 -6 -5z"/>
<path d="M4090 1335 c0 -15 73 -40 90 -30 5 3 12 0 16 -6 4 -8 9 -7 15 2 8 12
11 11 20 -1 8 -12 9 -9 3 10 -8 31 -10 34 -23 25 -6 -3 -9 -11 -6 -16 11 -17
-12 -9 -30 11 -22 24 -85 28 -85 5z"/>
<path d="M4050 1194 l0 -35 30 21 c33 24 31 50 -6 50 -21 0 -24 -5 -24 -36z
m35 16 c3 -5 1 -10 -4 -10 -6 0 -11 5 -11 10 0 6 2 10 4 10 3 0 8 -4 11 -10z"/>
<path d="M4121 1193 c0 -21 3 -32 6 -25 7 17 24 15 39 -5 11 -16 13 -14 12 17
-1 37 -11 50 -40 50 -14 0 -18 -8 -17 -37z m39 13 c0 -11 -19 -15 -25 -6 -3 5
1 10 9 10 9 0 16 -2 16 -4z"/>
<path d="M4597 1224 c-8 -8 1 -24 14 -24 5 0 9 7 9 15 0 15 -12 20 -23 9z"/>
<path d="M4590 1166 c0 -21 21 -31 30 -15 5 7 6 17 4 21 -9 14 -34 9 -34 -6z"/>
<path d="M4734 1099 c-10 -17 13 -36 27 -22 12 12 4 33 -11 33 -5 0 -12 -5
-16 -11z"/>
<path d="M4188 928 c7 -7 12 -23 13 -37 l1 -26 11 28 c6 15 14 27 19 27 4 0 8
5 8 10 0 6 -14 10 -32 10 -25 0 -29 -3 -20 -12z"/>
<path d="M4252 898 c2 -28 7 -33 28 -33 21 0 26 5 28 34 2 21 0 31 -7 26 -6
-3 -11 -18 -11 -31 0 -16 -5 -24 -12 -21 -7 2 -12 16 -10 31 1 14 -2 26 -8 26
-7 0 -10 -14 -8 -32z"/>
<path d="M4330 915 c0 -20 18 -55 29 -55 10 0 31 46 24 54 -3 3 -12 -2 -19
-12 -12 -16 -13 -16 -14 0 0 22 -20 34 -20 13z"/>
<path d="M4910 1026 c0 -58 25 -59 31 -1 3 22 0 31 -13 33 -14 3 -18 -4 -18
-32z"/>
<path d="M4424 690 c8 -43 15 -49 31 -27 12 16 13 16 18 -5 8 -30 25 -13 32
32 6 34 6 34 -8 11 l-14 -23 -7 23 -6 24 -15 -25 c-10 -18 -14 -20 -15 -8 0 9
-5 20 -12 24 -8 5 -9 -2 -4 -26z"/>
<path d="M4542 693 c8 -10 8 -17 0 -25 -18 -18 -14 -32 4 -17 13 10 17 10 24
-1 5 -8 12 -11 16 -7 4 4 3 12 -4 19 -7 7 -8 17 -2 28 7 14 4 17 -20 17 -24 0
-28 -3 -18 -14z"/>
<path d="M4610 706 c0 -2 6 -19 14 -37 l14 -34 15 35 c15 37 13 54 -4 30 -8
-11 -12 -12 -16 -2 -4 11 -23 18 -23 8z"/>
<path d="M4790 615 c-11 -13 -11 -19 3 -32 21 -21 49 -9 45 19 -4 28 -30 35
-48 13z m35 -13 c0 -18 -20 -15 -23 4 -3 10 1 15 10 12 7 -3 13 -10 13 -16z"/>
<path d="M4857 623 c-4 -3 -7 -18 -6 -32 0 -14 3 -20 6 -13 2 6 11 12 18 12
20 0 30 21 14 31 -17 11 -24 11 -32 2z"/>
<path d="M4918 593 c3 -17 7 -22 10 -13 3 8 9 21 15 28 7 9 4 12 -10 12 -17 0
-19 -5 -15 -27z"/>
<path d="M4960 595 c0 -19 4 -26 14 -22 7 3 18 1 24 -5 8 -8 10 -3 9 18 -2 22
-8 30 -25 32 -18 3 -22 -1 -22 -23z"/>
<path d="M6678 693 c7 -3 16 -2 19 1 4 3 -2 6 -13 5 -11 0 -14 -3 -6 -6z"/>
<path d="M6670 620 c-9 -6 -10 -10 -3 -10 6 0 15 5 18 10 8 12 4 12 -15 0z"/>
<path d="M6738 213 c7 -3 16 -2 19 1 4 3 -2 6 -13 5 -11 0 -14 -3 -6 -6z"/>
</g>
</svg>
